<svg width="16" height="16" viewBox="0 0 16 16" fill="none" xmlns="http://www.w3.org/2000/svg">
<g id="Iconset-Hybrid/Icon793">
<path id="Secondary" fill-rule="evenodd" clip-rule="evenodd" d="M1.02109 8.85633L1 8.92662V9H2.02202L3 5.74005L3.97798 9H5V8.92662L4.97891 8.85633L3.82202 5H2.17798L1.02109 8.85633ZM11.0211 8.85633L11 8.92662V9H12.022L13 5.74005L13.978 9H15V8.92662L14.9789 8.85633L13.822 5H12.178L11.0211 8.85633Z" fill="#EEEEEE" fill-opacity="0.5" style="fill:#EEEEEE;fill:color(display-p3 0.9333 0.9333 0.9333);fill-opacity:0.5;"/>
<path id="Primary" fill-rule="evenodd" clip-rule="evenodd" d="M8.5 1H7.5C7.22386 1 7 1.22386 7 1.5V2H5.91421C5.51639 2 5.13486 2.15803 4.85355 2.43934L4.43934 2.85355C4.34557 2.94732 4.21839 3 4.08579 3H2.5H2V4H2.5H4.08579C4.48361 4 4.86514 3.84196 5.14645 3.56066L5.56066 3.14645C5.65443 3.05268 5.7816 3 5.91421 3H7V12L5.29289 13.7071C5.10536 13.8946 5 14.149 5 14.4142V15H11V14.4142C11 14.149 10.8946 13.8946 10.7071 13.7071L9 12V3H10.0858C10.2184 3 10.3456 3.05268 10.4393 3.14645L10.8536 3.56066C11.1349 3.84197 11.5164 4 11.9142 4H13.5H14V3H13.5H11.9142C11.7816 3 11.6544 2.94732 11.5607 2.85355L11.1464 2.43934C10.8651 2.15804 10.4836 2 10.0858 2H9V1.5C9 1.22386 8.77614 1 8.5 1ZM3 12C4.10457 12 5 11.1046 5 10H1C1 11.1046 1.89543 12 3 12ZM13 12C14.1046 12 15 11.1046 15 10H11C11 11.1046 11.8954 12 13 12Z" fill="#EEEEEE" style="fill:#EEEEEE;fill:color(display-p3 0.9333 0.9333 0.9333);fill-opacity:1;"/>
</g>
</svg>
