<svg width="16" height="16" viewBox="0 0 16 16" fill="none" xmlns="http://www.w3.org/2000/svg">
<g id="Iconset-Hybrid/Icon794">
<path id="Subtract" fill-rule="evenodd" clip-rule="evenodd" d="M2 14L1 15H9.5C12.5376 15 15 12.5376 15 9.5V4.71761C15 2.66443 13.3356 1 11.2824 1C10.4684 1 9.69514 1.35567 9.16543 1.97367L7.24074 4.21913C7.08539 4.40038 7 4.63121 7 4.86992V5.72913C7.73323 5.25601 8.59475 5 9.47495 5C11.9509 5 14 7.00546 14 9.5C14 11.9853 11.9853 14 9.5 14H2ZM11 2C10.4477 2 10 2.44772 10 3C10 3.55228 10.4477 4 11 4C11.5523 4 12 3.55228 12 3C12 2.44772 11.5523 2 11 2Z" fill="#EEEEEE" style="fill:#EEEEEE;fill:color(display-p3 0.9333 0.9333 0.9333);fill-opacity:1;"/>
<path id="Vector 698" d="M6.96447 7.03553L1 13H9.5C11.433 13 13 11.433 13 9.5C13 7.567 11.4079 6 9.47495 6C8.53727 6 7.62751 6.37249 6.96447 7.03553Z" fill="#EEEEEE" fill-opacity="0.6" style="fill:#EEEEEE;fill:color(display-p3 0.9333 0.9333 0.9333);fill-opacity:0.6;"/>
</g>
</svg>
