<svg width="16" height="16" viewBox="0 0 16 16" fill="none" xmlns="http://www.w3.org/2000/svg">
<path fill-rule="evenodd" clip-rule="evenodd" d="M10 1H2.5C1.67157 1 1 1.67157 1 2.5C1 3.32843 1.67157 4 2.5 4H6.41421H9H9.58579C10.1162 4 10.6249 4.21071 11 4.58579L11.4142 5C11.7893 5.37507 12 5.88378 12 6.41421V7C12 7.47427 11.8349 7.90998 11.5591 8.2528C11.7194 8.34208 11.868 8.45375 12 8.58579L12.4142 9C12.7893 9.37507 13 9.88378 13 10.4142V11C13 11.4743 12.8349 11.91 12.5591 12.2528C12.7194 12.3421 12.868 12.4537 13 12.5858L13.4142 13C13.7893 13.3751 14 13.8838 14 14.4142V15C14 15.3643 13.9026 15.7058 13.7324 16H14C14.5523 16 15 15.5523 15 15V2C15 1.44772 14.5523 1 14 1H10ZM10.2929 5.29289C10.1054 5.10536 9.851 5 9.58579 5H9.00761H6.41421C6.149 5 5.89464 5.10536 5.70711 5.29289L5.29289 5.70711C5.10536 5.89464 5 6.149 5 6.41421V7C5 7.55228 5.44772 8 6 8H9.75H10C10.5523 8 11 7.55228 11 7V6.41421C11 6.149 10.8946 5.89464 10.7071 5.70711L10.2929 5.29289ZM11.2929 9.29289C11.1054 9.10536 10.851 9 10.5858 9H10H7.41421C7.149 9 6.89464 9.10536 6.70711 9.29289L6.29289 9.70711C6.10536 9.89464 6 10.149 6 10.4142V11C6 11.5523 6.44772 12 7 12H10.75H11C11.5523 12 12 11.5523 12 11V10.4142C12 10.149 11.8946 9.89464 11.7071 9.70711L11.2929 9.29289ZM12 16H8C7.44772 16 7 15.5523 7 15V14.4142C7 14.149 7.10536 13.8946 7.29289 13.7071L7.70711 13.2929C7.89464 13.1054 8.149 13 8.41421 13H10.9924H11H11.5858C11.851 13 12.1054 13.1054 12.2929 13.2929L12.7071 13.7071C12.8946 13.8946 13 14.149 13 14.4142V15C13 15.5523 12.5523 16 12 16Z" fill="#EEEEEE" style="fill:#EEEEEE;fill:color(display-p3 0.9333 0.9333 0.9333);fill-opacity:1;"/>
</svg>
