<svg width="16" height="16" viewBox="0 0 16 16" fill="none" xmlns="http://www.w3.org/2000/svg">
<g id="Iconset-Hybrid/Icon793">
<path id="Secondary" d="M1 5L5 1H3C1.89543 1 1 1.89543 1 3V5Z" fill="#EEEEEE" fill-opacity="0.6" style="fill:#EEEEEE;fill:color(display-p3 0.9333 0.9333 0.9333);fill-opacity:0.6;"/>
<path id="Primary" fill-rule="evenodd" clip-rule="evenodd" d="M10 2.34141C9.37444 2.12031 8.70127 2 8 2C4.68629 2 2 4.68629 2 8C2 9.52963 2.5724 10.9256 3.51469 11.9853L2.29289 13.2071C2.10536 13.3946 2 13.649 2 13.9142V14C2 14.5523 2.44772 15 3 15H3.08579C3.351 15 3.60536 14.8946 3.79289 14.7071L5.19479 13.3052C6.03193 13.7488 6.98663 14 8 14C9.01337 14 9.96807 13.7488 10.8052 13.3052L12.2071 14.7071C12.3946 14.8946 12.649 15 12.9142 15H13C13.5523 15 14 14.5523 14 14V13.9142C14 13.649 13.8946 13.3946 13.7071 13.2071L12.4853 11.9853C13.4276 10.9256 14 9.52963 14 8C14 7.29873 13.8797 6.62556 13.6586 6H12.584C12.8516 6.61246 13 7.2889 13 8C13 10.7614 10.7614 13 8 13C5.23858 13 3 10.7614 3 8C3 5.23858 5.23858 3 8 3C8.7111 3 9.38754 3.14845 10 3.41604V2.34141Z" fill="#EEEEEE" style="fill:#EEEEEE;fill:color(display-p3 0.9333 0.9333 0.9333);fill-opacity:1;"/>
<path id="Overlay" fill-rule="evenodd" clip-rule="evenodd" d="M11.1464 4.14645L11 4.29282V5H11.4999H14.4999H14.9999V4H14.4999H12.707L14.8535 1.85355L15 1.70703V1H14.4999H11.4999H11V2H11.4999H13.2928L11.1464 4.14645ZM9.5 6H10V6.70711L9.85355 6.85355L8.70711 8H9.5H10V9H9.5H7.5H7V8.29289L7.14645 8.14645L8.29289 7H7.5H7V6H7.5H9.5Z" fill="#EEEEEE" style="fill:#EEEEEE;fill:color(display-p3 0.9333 0.9333 0.9333);fill-opacity:1;"/>
</g>
</svg>
