<svg width="16" height="16" viewBox="0 0 16 16" fill="none" xmlns="http://www.w3.org/2000/svg">
<g id="Icon=envelope">
<path id="Primary" fill-rule="evenodd" clip-rule="evenodd" d="M1 5.41421V13C1 13.5523 1.44772 14 2 14H14C14.5523 14 15 13.5523 15 13V5.41421L11 9.41421C10.6249 9.78929 10.1162 10 9.58579 10H6.41421C5.88378 10 5.37507 9.78929 5 9.41421L1 5.41421ZM15 4V3C15 2.44772 14.5523 2 14 2H2C1.96548 2 1.93137 2.00175 1.89776 2.00516C1.42712 2.05296 1.05296 2.42712 1.00516 2.89776C1.00175 2.93137 1 2.96548 1 3V4L5.70711 8.70711C5.89464 8.89464 6.149 9 6.41421 9H9.58579C9.851 9 10.1054 8.89464 10.2929 8.70711L15 4Z" fill="white" style="fill:white;fill-opacity:1;"/>
</g>
</svg>
