<svg width="16" height="16" viewBox="0 0 16 16" fill="none" xmlns="http://www.w3.org/2000/svg">
<g id="Iconset-Hybrid/Icon793">
<path id="Primary" fill-rule="evenodd" clip-rule="evenodd" d="M12 14V2H11.4142C11.149 2 10.8946 2.10536 10.7071 2.29289L8 5H7H6H3C1.89543 5 1 5.89543 1 7V9C1 10.1046 1.89543 11 3 11V14L4 15H6V11H7H8L10.7071 13.7071C10.8946 13.8946 11.149 14 11.4142 14H12ZM15 8C15 6.89543 14.1046 6 13 6V10C14.1046 10 15 9.10457 15 8Z" fill="white" style="fill:white;fill-opacity:1;"/>
</g>
</svg>
