<svg width="16" height="16" viewBox="0 0 16 16" fill="none" xmlns="http://www.w3.org/2000/svg">
<g id="Iconset-Hybrid/Icon794">
<path id="Primary" fill-rule="evenodd" clip-rule="evenodd" d="M6 1V1.5V3.5V4H5V3.5V1.5V1H6ZM2 1.29289L2.35355 1.64645L3.85355 3.14645L4.20711 3.5L3.5 4.20711L3.14645 3.85355L1.64645 2.35355L1.29289 2L2 1.29289ZM1 5H1.5H3.5H4V6H3.5H1.5H1V5Z" fill="#EEEEEE" style="fill:#EEEEEE;fill:color(display-p3 0.9333 0.9333 0.9333);fill-opacity:1;"/>
<path id="Primary_2" fill-rule="evenodd" clip-rule="evenodd" d="M10 15L10 14.5L10 12.5L10 12L11 12L11 12.5L11 14.5L11 15L10 15ZM14 14.7071L13.6464 14.3536L12.1464 12.8536L11.7929 12.5L12.5 11.7929L12.8536 12.1464L14.3536 13.6464L14.7071 14L14 14.7071ZM15 11L14.5 11L12.5 11L12 11L12 10L12.5 10L14.5 10L15 10L15 11Z" fill="#EEEEEE" style="fill:#EEEEEE;fill:color(display-p3 0.9333 0.9333 0.9333);fill-opacity:1;"/>
<path id="Primary_3" fill-rule="evenodd" clip-rule="evenodd" d="M2.17157 8.17157L2.34315 8H5.17157L3.58579 9.58579C2.80474 10.3668 2.80474 11.6332 3.58579 12.4142C4.36683 13.1953 5.63316 13.1953 6.41421 12.4142L8 10.8284L8 13.6569L7.82843 13.8284C6.26633 15.3905 3.73367 15.3905 2.17157 13.8284C0.609476 12.2663 0.609476 9.73367 2.17157 8.17157ZM13.6569 8L13.8284 7.82843C15.3905 6.26633 15.3905 3.73367 13.8284 2.17157C12.2663 0.609475 9.73367 0.609475 8.17157 2.17157L8 2.34314V5.17157L9.58579 3.58579C10.3668 2.80474 11.6332 2.80474 12.4142 3.58579C13.1953 4.36683 13.1953 5.63316 12.4142 6.41421L10.8284 8L13.6569 8Z" fill="#EEEEEE" style="fill:#EEEEEE;fill:color(display-p3 0.9333 0.9333 0.9333);fill-opacity:1;"/>
</g>
</svg>
