<svg width="16" height="16" viewBox="0 0 16 16" fill="none" xmlns="http://www.w3.org/2000/svg">
<g id="Iconset-Hybrid/Icon793">
<path id="Secondary" fill-rule="evenodd" clip-rule="evenodd" d="M6.26756 7C6.61337 7.5978 7.25972 8 8 8H9V12C9 12.5523 8.55228 13 8 13H5.5L3.85355 14.6464C3.53857 14.9614 3 14.7383 3 14.2929V13H2C1.44772 13 1 12.5523 1 12V8C1 7.44772 1.44772 7 2 7H6.26756Z" fill="#eeeeee" fill-opacity="0.5" style="fill:#eeeeee;fill-opacity:0.5;"/>
<path id="Primary" fill-rule="evenodd" clip-rule="evenodd" d="M14 1C14.5523 1 15 1.44772 15 2V6C15 6.55228 14.5523 7 14 7H13V8.29289C13 8.73835 12.4614 8.96143 12.1464 8.64645L10.5 7H8C7.44772 7 7 6.55228 7 6V2C7 1.44772 7.44772 1 8 1H14Z" fill="#eeeeee" style="fill:#eeeeee;fill-opacity:1;"/>
</g>
</svg>
