<svg width="16" height="16" viewBox="0 0 16 16" fill="none" xmlns="http://www.w3.org/2000/svg">
<g id="Iconset-Hybrid/Icon793">
<path id="Secondary" d="M14.807 4.79364C14.7094 5.03785 14.5617 5.26671 14.3639 5.46446C14.0414 5.78698 13.6361 5.97632 13.2165 6.03248C14.5211 8.32269 14.1964 11.2888 12.2426 13.2426C11.8521 13.6332 11.8521 14.2663 12.2426 14.6569C12.6331 15.0474 13.2663 15.0474 13.6568 14.6569C16.3335 11.9801 16.7169 7.87853 14.807 4.79364Z" fill="#EEEEEE" fill-opacity="0.6" style="fill:#EEEEEE;fill:color(display-p3 0.9333 0.9333 0.9333);fill-opacity:0.6;"/>
<path id="Primary" fill-rule="evenodd" clip-rule="evenodd" d="M8 14C10.7614 14 13 11.7614 13 9C13 6.23858 10.7614 4 8 4C5.23858 4 3 6.23858 3 9C3 11.7614 5.23858 14 8 14ZM10 8.00001C10.5523 8.00001 11 7.5523 11 7.00001C11 6.44773 10.5523 6.00001 10 6.00001C9.44772 6.00001 9 6.44773 9 7.00001C9 7.5523 9.44772 8.00001 10 8.00001Z" fill="#EEEEEE" style="fill:#EEEEEE;fill:color(display-p3 0.9333 0.9333 0.9333);fill-opacity:1;"/>
<path id="Overlay" fill-rule="evenodd" clip-rule="evenodd" d="M12.2426 4.75736C9.89949 2.41421 6.1005 2.41421 3.75736 4.75736C1.41421 7.1005 1.41421 10.8995 3.75736 13.2426C4.14788 13.6332 4.14788 14.2663 3.75736 14.6569C3.36683 15.0474 2.73367 15.0474 2.34315 14.6569C-0.781049 11.5327 -0.781048 6.46734 2.34315 3.34314C5.46734 0.218948 10.5327 0.218948 13.6569 3.34314C14.0474 3.73367 14.0474 4.36683 13.6569 4.75736C13.2663 5.14788 12.6332 5.14788 12.2426 4.75736Z" fill="#EEEEEE" style="fill:#EEEEEE;fill:color(display-p3 0.9333 0.9333 0.9333);fill-opacity:1;"/>
</g>
</svg>
