<svg width="16" height="16" viewBox="0 0 16 16" fill="none" xmlns="http://www.w3.org/2000/svg">
<g id="Icon=hands-exchange">
<path id="Primary" fill-rule="evenodd" clip-rule="evenodd" d="M13 6L15 6V1H13.5C13.2239 1 13 1.22386 13 1.5V6ZM3.37488 2.85005L7.69977 1.12009C7.89495 1.04202 8.10977 1.02744 8.3137 1.07842L12 2V5L6.5 5C6.22386 5 6 4.77614 6 4.5C6 4.22386 6.22386 4 6.5 4L9 4L9 3L6.5 3L3.79694 3.96538C3.40856 4.10408 3 3.81616 3 3.40376C3 3.1599 3.14847 2.94061 3.37488 2.85005ZM3 10H1V15H2.5C2.77614 15 3 14.7761 3 14.5V10ZM12.6251 13.15L8.30023 14.8799C8.10505 14.958 7.89023 14.9726 7.6863 14.9216L4 14V11H9.5C9.77614 11 10 11.2239 10 11.5C10 11.7761 9.77614 12 9.5 12H7V13H9.5L12.2031 12.0346C12.5914 11.8959 13 12.1838 13 12.5962C13 12.8401 12.8515 13.0594 12.6251 13.15ZM8 10C9.10457 10 10 9.10457 10 8C10 6.89543 9.10457 6 8 6C6.89543 6 6 6.89543 6 8C6 9.10457 6.89543 10 8 10Z" fill="#eeeeee" style="fill:#eeeeee;fill-opacity:1;"/>
</g>
</svg>
