<svg width="16" height="16" viewBox="0 0 16 16" fill="none" xmlns="http://www.w3.org/2000/svg">
<g id="Icon=loop-infinite">
<path id="Primary" fill-rule="evenodd" clip-rule="evenodd" d="M2 8C2 6.89543 2.89543 6 4 6C4.55601 6 5.04963 6.22802 5.57457 6.68894C5.75097 6.84382 5.92239 7.01724 6.09304 7.2069C6.19098 7.07826 6.29296 6.94273 6.4 6.8L6.45328 6.72893L6.45329 6.72892C6.7112 6.38482 7.00407 5.99409 7.33009 5.60241C7.18912 5.45718 7.04391 5.31753 6.89418 5.18606C6.13787 4.52198 5.19399 4 4 4C1.79086 4 0 5.79086 0 8C0 10.2091 1.79086 12 4 12C5.19399 12 6.13787 11.478 6.89418 10.8139C7.61336 10.1825 8.2284 9.36227 8.76821 8.64239L8.8 8.6C9.37757 7.82991 9.87752 7.17003 10.4254 6.68894C10.9504 6.22802 11.444 6 12 6C13.1046 6 14 6.89543 14 8C14 9.10457 13.1046 10 12 10C11.444 10 10.9504 9.77198 10.4254 9.31106C10.249 9.15618 10.0776 8.98276 9.90696 8.7931C9.80902 8.92174 9.70704 9.05727 9.6 9.2L9.54671 9.27108C9.28879 9.61519 8.99593 10.0059 8.66991 10.3976C8.81087 10.5428 8.95609 10.6825 9.10582 10.8139C9.86213 11.478 10.806 12 12 12C14.2091 12 16 10.2091 16 8C16 5.79086 14.2091 4 12 4C10.806 4 9.86213 4.52198 9.10582 5.18606C8.38664 5.81754 7.77161 6.63773 7.2318 7.3576L7.23179 7.35761L7.2 7.4C6.62243 8.17009 6.12248 8.82997 5.57457 9.31106C5.04963 9.77198 4.55601 10 4 10C2.89543 10 2 9.10457 2 8Z" fill="white" style="fill:white;fill-opacity:1;"/>
</g>
</svg>
