<svg width="64" height="64" viewBox="0 0 64 64" fill="none" xmlns="http://www.w3.org/2000/svg">
<path fill-rule="evenodd" clip-rule="evenodd" d="M48.8288 4.82831L59.172 15.1715C60.734 16.7336 60.734 19.2662 59.1719 20.8283L57.4146 22.5857L51.4146 16.5857L50.0004 15.1715L47.1719 17.9999L48.5862 19.4141L54.5862 25.4141L49.4146 30.5857L43.4146 24.5857L42.0004 23.1715L39.1719 25.9999L40.5862 27.4141L46.5862 33.4141L41.4146 38.5857L35.4146 32.5857L34.0004 31.1715L31.1719 33.9999L32.5862 35.4141L38.5862 41.4141L33.4146 46.5857L27.4146 40.5857L26.0004 39.1715L23.1719 41.9999L24.5862 43.4141L30.5862 49.4141L25.4146 54.5857L19.4146 48.5857L18.0004 47.1715L15.1719 49.9999L16.5862 51.4141L22.5862 57.4141L20.8288 59.1715C19.2667 60.7336 16.734 60.7336 15.1719 59.1715L4.8288 48.8283C3.2667 47.2662 3.2667 44.7336 4.8288 43.1715L43.1719 4.82831C44.734 3.26621 47.2667 3.26621 48.8288 4.82831Z" fill="#F3C846"/>
</svg>
