<svg width="64" height="64" viewBox="0 0 64 64" fill="none" xmlns="http://www.w3.org/2000/svg">
<path fill-rule="evenodd" clip-rule="evenodd" d="M60 10C60 6.68629 57.3137 4 54 4C50.6863 4 48 6.68629 48 10C48 10.9263 48.2099 11.8036 48.5847 12.5868L12.5868 48.5847C11.8036 48.2099 10.9263 48 10 48C6.68629 48 4 50.6863 4 54C4 57.3137 6.68629 60 10 60C13.3137 60 16 57.3137 16 54C16 53.0737 15.7901 52.1964 15.4153 51.4132L51.4132 15.4153C52.1964 15.7901 53.0737 16 54 16C57.3137 16 60 13.3137 60 10Z" fill="#F3C846"/>
</svg>
