<svg width="64" height="64" viewBox="0 0 64 64" fill="none" xmlns="http://www.w3.org/2000/svg">
<path fill-rule="evenodd" clip-rule="evenodd" d="M55.2801 4.60399L16.5254 37.1219C20.0459 36.3932 23.9434 36 28 36C35.0235 36 41.5698 37.1786 46.509 39.2366C48.9699 40.262 51.2225 41.5847 52.9211 43.258C53.0294 43.3647 53.1363 43.4737 53.2416 43.5851L59.485 7.01653C59.7542 5.43967 58.5394 3.99994 56.9398 3.99994C56.3327 3.99994 55.7451 4.21381 55.2801 4.60399ZM28 60C41.2548 60 52 55.5228 52 50C52 44.4772 41.2548 40 28 40C14.7452 40 4 44.4772 4 50C4 55.5228 14.7452 60 28 60Z" fill="#F3C846"/>
</svg>
