<svg width="64" height="64" viewBox="0 0 64 64" fill="none" xmlns="http://www.w3.org/2000/svg">
<path fill-rule="evenodd" clip-rule="evenodd" d="M47.8323 27.833C41.8361 26.901 37.0988 22.1637 36.1668 16.1675C31.5195 17.0285 28 21.1032 28 25.9998C28 31.5227 32.4772 35.9998 38 35.9998C42.8967 35.9998 46.9713 32.4804 47.8323 27.833Z" fill="#F3C846" fill-opacity="0.6"/>
<path fill-rule="evenodd" clip-rule="evenodd" d="M50 24C55.5228 24 60 19.5228 60 14C60 8.47715 55.5228 4 50 4C44.4772 4 40 8.47715 40 14C40 19.5228 44.4772 24 50 24ZM4 40H12V58C12 59.1046 11.1046 60 10 60H4V40ZM41.2009 59.5196L58.5005 52.5998C59.4061 52.2375 60 51.3604 60 50.385C60 48.7354 58.3657 47.5837 56.8122 48.1385L46 52H36V48H46C47.1046 48 48 47.1046 48 46C48 44.8954 47.1046 44 46 44H16V56H24L38.7452 59.6863C39.5609 59.8902 40.4202 59.8319 41.2009 59.5196Z" fill="#F3C846"/>
</svg>
