<svg width="64" height="64" viewBox="0 0 64 64" fill="none" xmlns="http://www.w3.org/2000/svg">
<path fill-rule="evenodd" clip-rule="evenodd" d="M16.5341 42.353C11.3151 44.1874 8 46.9324 8 50.0001C8 55.5229 18.7452 60.0001 32 60.0001C45.2548 60.0001 56 55.5229 56 50.0001C56 46.9324 52.6849 44.1874 47.4659 42.353C43.289 45.8766 37.8925 48.0001 32 48.0001C26.1075 48.0001 20.711 45.8766 16.5341 42.353Z" fill="#ECB100" fill-opacity="0.6"/>
<path d="M52 24C52 35.0457 43.0457 44 32 44C20.9543 44 12 35.0457 12 24C12 12.9543 20.9543 4 32 4C43.0457 4 52 12.9543 52 24Z" fill="#F3C846"/>
</svg>
