<svg width="422" height="96" viewBox="0 0 422 96" fill="none" xmlns="http://www.w3.org/2000/svg">
<path d="M12 54L8.48528 57.5147C3.79899 62.201 3.79899 69.799 8.48528 74.4853L21.5147 87.5147C26.201 92.201 33.799 92.201 38.4853 87.5147L42 84L12 54Z" fill="#888888"/>
<path d="M12 18L8.48528 21.5147C3.79899 26.201 3.79899 33.799 8.48528 38.4853L48 78L51.5147 74.4853C56.201 69.799 56.201 62.201 51.5147 57.5147L12 18Z" fill="#888888"/>
<path d="M21.5147 8.48528L18 12L48 42L51.5147 38.4853C56.201 33.799 56.201 26.201 51.5147 21.5147L38.4853 8.48528C33.799 3.79899 26.201 3.79899 21.5147 8.48528Z" fill="#888888"/>
<path d="M96.928 72V24.32H128.352V31.04H104.48V44.736H127.072V51.456H104.48V65.28H128.352V72H96.928ZM132.101 72V23.552H139.333V72H132.101ZM160.205 72.384C156.578 72.384 153.762 71.36 151.757 69.312C149.752 67.264 148.749 64.384 148.749 60.672V43.904H142.669V37.376H143.629C145.25 37.376 146.509 36.9067 147.405 35.968C148.301 35.0293 148.749 33.7493 148.749 32.128V29.44H155.981V37.376H163.853V43.904H155.981V60.352C155.981 61.5467 156.173 62.5707 156.557 63.424C156.941 64.2347 157.56 64.8747 158.413 65.344C159.266 65.7707 160.376 65.984 161.741 65.984C162.082 65.984 162.466 65.9627 162.893 65.92C163.32 65.8773 163.725 65.8347 164.109 65.792V72C163.512 72.0853 162.85 72.1707 162.125 72.256C161.4 72.3413 160.76 72.384 160.205 72.384ZM181.023 72.384C177.396 72.384 174.58 71.36 172.575 69.312C170.569 67.264 169.567 64.384 169.567 60.672V43.904H163.487V37.376H164.447C166.068 37.376 167.327 36.9067 168.223 35.968C169.119 35.0293 169.567 33.7493 169.567 32.128V29.44H176.799V37.376H184.671V43.904H176.799V60.352C176.799 61.5467 176.991 62.5707 177.375 63.424C177.759 64.2347 178.377 64.8747 179.231 65.344C180.084 65.7707 181.193 65.984 182.559 65.984C182.9 65.984 183.284 65.9627 183.711 65.92C184.137 65.8773 184.543 65.8347 184.927 65.792V72C184.329 72.0853 183.668 72.1707 182.943 72.256C182.217 72.3413 181.577 72.384 181.023 72.384ZM205.503 72.768C202.175 72.768 199.124 71.9787 196.351 70.4C193.62 68.8213 191.444 66.6667 189.823 63.936C188.202 61.2053 187.391 58.112 187.391 54.656C187.391 51.1573 188.202 48.064 189.823 45.376C191.444 42.6453 193.62 40.512 196.351 38.976C199.082 37.3973 202.132 36.608 205.503 36.608C208.916 36.608 211.967 37.3973 214.655 38.976C217.386 40.512 219.54 42.6453 221.119 45.376C222.74 48.064 223.551 51.1573 223.551 54.656C223.551 58.1547 222.74 61.2693 221.119 64C219.498 66.7307 217.322 68.8853 214.591 70.464C211.86 72 208.831 72.768 205.503 72.768ZM205.503 66.048C207.551 66.048 209.364 65.5573 210.943 64.576C212.522 63.5947 213.759 62.2507 214.655 60.544C215.594 58.7947 216.063 56.832 216.063 54.656C216.063 52.48 215.594 50.5387 214.655 48.832C213.759 47.1253 212.522 45.7813 210.943 44.8C209.364 43.8187 207.551 43.328 205.503 43.328C203.498 43.328 201.684 43.8187 200.063 44.8C198.484 45.7813 197.226 47.1253 196.287 48.832C195.391 50.5387 194.943 52.48 194.943 54.656C194.943 56.832 195.391 58.7947 196.287 60.544C197.226 62.2507 198.484 63.5947 200.063 64.576C201.684 65.5573 203.498 66.048 205.503 66.048ZM246.548 72.768C243.86 72.768 241.406 72.2133 239.188 71.104C237.012 69.9947 235.326 68.3947 234.132 66.304L234.964 64.96V72H228.051V23.552H235.283V44.544L234.132 42.88C235.412 40.9173 237.118 39.3813 239.252 38.272C241.385 37.1627 243.817 36.608 246.548 36.608C249.833 36.608 252.777 37.3973 255.38 38.976C258.025 40.5547 260.094 42.7093 261.588 45.44C263.124 48.1707 263.892 51.2427 263.892 54.656C263.892 58.0693 263.124 61.1413 261.588 63.872C260.094 66.6027 258.046 68.7787 255.444 70.4C252.841 71.9787 249.876 72.768 246.548 72.768ZM245.844 66.048C247.892 66.048 249.705 65.5573 251.284 64.576C252.862 63.5947 254.1 62.2507 254.996 60.544C255.934 58.7947 256.403 56.832 256.403 54.656C256.403 52.48 255.934 50.5387 254.996 48.832C254.1 47.1253 252.862 45.7813 251.284 44.8C249.705 43.8187 247.892 43.328 245.844 43.328C243.838 43.328 242.025 43.8187 240.403 44.8C238.825 45.7813 237.566 47.1253 236.627 48.832C235.731 50.5387 235.283 52.48 235.283 54.656C235.283 56.832 235.731 58.7947 236.627 60.544C237.566 62.2507 238.825 63.5947 240.403 64.576C242.025 65.5573 243.838 66.048 245.844 66.048ZM294.402 72.768C291.415 72.768 288.642 72.2133 286.082 71.104C283.522 69.952 281.346 68.3947 279.554 66.432C277.762 64.4693 276.439 62.208 275.586 59.648L281.986 56.96C283.138 59.904 284.823 62.1653 287.042 63.744C289.261 65.3227 291.821 66.112 294.722 66.112C296.429 66.112 297.922 65.856 299.202 65.344C300.482 64.7893 301.463 64.0213 302.146 63.04C302.871 62.0587 303.234 60.928 303.234 59.648C303.234 57.8987 302.743 56.512 301.762 55.488C300.781 54.464 299.33 53.6533 297.41 53.056L288.45 50.24C284.866 49.1307 282.135 47.4453 280.258 45.184C278.381 42.88 277.442 40.192 277.442 37.12C277.442 34.432 278.103 32.0853 279.426 30.08C280.749 28.032 282.562 26.432 284.866 25.28C287.213 24.128 289.879 23.552 292.866 23.552C295.725 23.552 298.327 24.064 300.674 25.088C303.021 26.0693 305.026 27.4347 306.69 29.184C308.397 30.9333 309.634 32.96 310.402 35.264L304.13 38.016C303.191 35.4987 301.719 33.5573 299.714 32.192C297.751 30.8267 295.469 30.144 292.866 30.144C291.287 30.144 289.901 30.4213 288.706 30.976C287.511 31.488 286.573 32.256 285.89 33.28C285.25 34.2613 284.93 35.4133 284.93 36.736C284.93 38.272 285.421 39.6373 286.402 40.832C287.383 42.0267 288.877 42.9227 290.882 43.52L299.202 46.144C302.999 47.296 305.858 48.96 307.778 51.136C309.698 53.2693 310.658 55.936 310.658 59.136C310.658 61.7813 309.954 64.128 308.546 66.176C307.181 68.224 305.282 69.8453 302.85 71.04C300.418 72.192 297.602 72.768 294.402 72.768ZM328.224 72.768C325.621 72.768 323.338 72.192 321.376 71.04C319.413 69.8453 317.877 68.2027 316.768 66.112C315.701 63.9787 315.168 61.5253 315.168 58.752V37.376H322.4V58.112C322.4 59.6907 322.72 61.0773 323.36 62.272C324 63.4667 324.896 64.4053 326.048 65.088C327.2 65.728 328.522 66.048 330.016 66.048C331.552 66.048 332.896 65.7067 334.048 65.024C335.2 64.3413 336.096 63.3813 336.736 62.144C337.418 60.9067 337.76 59.456 337.76 57.792V37.376H344.928V72H338.08V65.216L338.848 66.112C338.037 68.2453 336.693 69.888 334.816 71.04C332.938 72.192 330.741 72.768 328.224 72.768ZM350.811 72V37.376H358.043V72H350.811ZM350.811 32.64V24.32H358.043V32.64H350.811ZM378.915 72.384C375.288 72.384 372.472 71.36 370.467 69.312C368.462 67.264 367.459 64.384 367.459 60.672V43.904H361.379V37.376H362.339C363.96 37.376 365.219 36.9067 366.115 35.968C367.011 35.0293 367.459 33.7493 367.459 32.128V29.44H374.691V37.376H382.563V43.904H374.691V60.352C374.691 61.5467 374.883 62.5707 375.267 63.424C375.651 64.2347 376.27 64.8747 377.123 65.344C377.976 65.7707 379.086 65.984 380.451 65.984C380.792 65.984 381.176 65.9627 381.603 65.92C382.03 65.8773 382.435 65.8347 382.819 65.792V72C382.222 72.0853 381.56 72.1707 380.835 72.256C380.11 72.3413 379.47 72.384 378.915 72.384ZM402.948 72.768C399.491 72.768 396.419 71.9787 393.731 70.4C391.086 68.7787 389.017 66.6027 387.523 63.872C386.03 61.0987 385.283 58.0053 385.283 54.592C385.283 51.0933 386.03 48 387.523 45.312C389.059 42.624 391.107 40.512 393.667 38.976C396.227 37.3973 399.129 36.608 402.372 36.608C404.974 36.608 407.299 37.056 409.347 37.952C411.396 38.848 413.124 40.0853 414.532 41.664C415.94 43.2 417.006 44.9707 417.731 46.976C418.499 48.9813 418.883 51.1147 418.883 53.376C418.883 53.9307 418.862 54.5067 418.819 55.104C418.777 55.7013 418.692 56.256 418.563 56.768H390.979V51.008H414.467L411.011 53.632C411.438 51.5413 411.289 49.6853 410.563 48.064C409.881 46.4 408.814 45.0987 407.364 44.16C405.955 43.1787 404.291 42.688 402.372 42.688C400.451 42.688 398.745 43.1787 397.251 44.16C395.758 45.0987 394.606 46.464 393.795 48.256C392.985 50.0053 392.665 52.1387 392.835 54.656C392.622 57.0027 392.942 59.0507 393.795 60.8C394.691 62.5493 395.929 63.9147 397.507 64.896C399.129 65.8773 400.963 66.368 403.011 66.368C405.102 66.368 406.873 65.8987 408.323 64.96C409.817 64.0213 410.99 62.8053 411.844 61.312L417.731 64.192C417.049 65.8133 415.982 67.2853 414.532 68.608C413.124 69.888 411.417 70.912 409.412 71.68C407.449 72.4053 405.294 72.768 402.948 72.768Z" fill="#888888"/>
</svg>
