<svg width="16" height="16" viewBox="0 0 16 16" fill="none" xmlns="http://www.w3.org/2000/svg">
<g id="Icon=globe">
<path id="Primary" fill-rule="evenodd" clip-rule="evenodd" d="M11 13.1973C10.1175 13.7078 9.09286 14 8 14C7.65929 14 7.32521 13.9716 7 13.917V12L6 11V9.99997L2.25708 6.25705C3.00381 3.79337 5.29247 2 8 2C8.34071 2 8.67479 2.0284 9 2.08296V3.58576C9 3.85098 8.89464 4.10533 8.70711 4.29287L7.29289 5.70708C7.10536 5.89462 6.851 5.99997 6.58579 5.99997H5V7.99997H6H7H8.58579C8.851 7.99997 9.10536 8.10533 9.29289 8.29287L10.7071 9.70708C10.8946 9.89462 11 10.149 11 10.4142V11V12V13.1973ZM14.7796 9.74932C14.0028 12.7688 11.262 15 8 15C4.13401 15 1 11.866 1 8C1 7.99999 1 7.99998 1 7.99997C1 7.10814 1.16678 6.25526 1.47085 5.47083L1.47086 5.47083C2.48491 2.85483 5.02585 1 8 1C8.33952 1 8.6734 1.02417 9 1.07089V1.07086C11.9274 1.4896 14.2706 3.71962 14.8578 6.58926C14.951 7.04494 15 7.51673 15 7.99997C15 8.60401 14.9235 9.19018 14.7796 9.74932Z" fill="#c79cff" style="fill:#c79cff;fill-opacity:1;"/>
</g>
</svg>
