<svg width="16" height="16" viewBox="0 0 16 16" fill="none" xmlns="http://www.w3.org/2000/svg">
<g id="Icon=solar-system">
<path id="Secondary" fill-rule="evenodd" clip-rule="evenodd" d="M9.36013 9.53468C9.38927 9.50591 9.41838 9.47698 9.44747 9.44789C11.0044 7.89101 12.0991 6.26624 12.642 4.94714C12.7164 4.76639 12.7783 4.59666 12.829 4.43829C11.7362 2.9592 9.98012 2 8 2C4.68629 2 2 4.68629 2 8C2 9.77705 2.77255 11.3737 4.00011 12.4723C4.01499 10.5521 5.57624 9 7.5 9C8.1835 9 8.82125 9.19593 9.36013 9.53468ZM10.9212 13.2421C12.5589 12.3276 13.7237 10.6678 13.957 8.72169C13.2924 9.68572 12.4864 10.6516 11.5688 11.5692C11.3749 11.7631 11.1789 11.9519 10.9812 12.1355C10.9936 12.2553 11 12.3769 11 12.5C11 12.7546 10.9728 13.0029 10.9212 13.2421Z" fill="#c79cff" fill-opacity="0.5" style="fill:#c79cff;fill-opacity:0.6;"/>
<path id="Primary" fill-rule="evenodd" clip-rule="evenodd" d="M2.33466 13.6649C2.11142 13.4417 1.97382 13.09 1.97761 12.5728C1.97944 12.3238 2.01444 12.0459 2.08369 11.7431C1.82791 11.3397 1.61226 10.9083 1.44235 10.4546C1.15008 11.2037 0.982356 11.9223 0.97764 12.5654C0.972566 13.2575 1.15807 13.9026 1.62755 14.372C2.09703 14.8415 2.74208 15.027 3.43417 15.022C3.87705 15.0187 4.35573 14.9381 4.85553 14.7928C4.62674 14.5292 4.43672 14.231 4.29434 13.9071C3.97684 13.9822 3.68618 14.0201 3.42684 14.022C2.90959 14.0258 2.5579 13.8882 2.33466 13.6649ZM10.8617 10.8621C10.8019 10.9219 10.7419 10.9811 10.6818 11.0399C10.5381 10.7273 10.3497 10.4395 10.1248 10.1847L10.1546 10.155C11.7815 8.52806 12.9623 6.7962 13.5668 5.32778C13.8694 4.59248 14.0178 3.94698 14.0216 3.42725C14.0254 2.91 13.8878 2.55831 13.6645 2.33507C13.4413 2.11183 13.0896 1.97423 12.5723 1.97802C12.3235 1.97985 12.0458 2.0148 11.7433 2.08396C11.3399 1.82815 10.9085 1.61247 10.4547 1.44254C11.2037 1.15041 11.9221 0.982766 12.565 0.978052C13.2571 0.972977 13.9022 1.15849 14.3716 1.62796C14.8411 2.09744 15.0266 2.74249 15.0215 3.43458C15.0165 4.1242 14.824 4.90063 14.4915 5.70842C13.8256 7.32617 12.5587 9.16512 10.8617 10.8621ZM7.5 15C8.88071 15 10 13.8807 10 12.5C10 11.1193 8.88071 10 7.5 10C6.11929 10 5 11.1193 5 12.5C5 13.8807 6.11929 15 7.5 15Z" fill="#c79cff" style="fill: #c79cff;fill-opacity:1;"/>
</g>
</svg>
