<svg width="16" height="16" viewBox="0 0 16 16" fill="none" xmlns="http://www.w3.org/2000/svg">
	<style>
		path {
			fill: #111111;
		}

		@media (prefers-color-scheme: dark) {
			path {
				fill: #eeeeee;
			}
		}
	</style>
	<path 
		fill-rule="evenodd"
		clip-rule="evenodd" 
		d="M5.99994 2.00019L6.58573 1.4144C7.36678 0.633351 8.63311 0.633351 9.41416 1.4144L11.5857 3.58597C12.3668 4.36702 12.3668 5.63335 11.5857 6.4144L10.9999 7.00019L5.99994 2.00019ZM4.99994 3.00019L4.41416 3.58597C3.63311 4.36702 3.63311 5.63335 4.41415 6.4144L10.9999 13.0002L11.5857 12.4144C12.3668 11.6334 12.3668 10.367 11.5857 9.58597L4.99994 3.00019ZM4.99994 9.00019L4.41416 9.58597C3.63311 10.367 3.63311 11.6333 4.41415 12.4144L6.58573 14.586C7.36678 15.367 8.63311 15.367 9.41416 14.586L9.99994 14.0002L4.99994 9.00019Z"
	/>
</svg>
