<svg width="64" height="64" viewBox="0 0 64 64" fill="none" xmlns="http://www.w3.org/2000/svg">
<path d="M51.3084 25.0414L50.3469 25.3164L50.4802 25.7827L50.929 25.9667L51.3084 25.0414ZM19.011 20.0301L19.0719 21.0282L19.5677 20.998L19.8431 20.5847L19.011 20.0301ZM9.73036 48.2697L9.08812 49.0362L9.78999 49.6243L10.4375 48.9769L9.73036 48.2697ZM22 36.0001L22.7071 35.293L22 34.5858L21.2929 35.293L22 36.0001ZM26 40.0001L25.2929 40.7072L26 41.4143L26.7072 40.7072L26 40.0001ZM38 28.0001L38.7071 27.293L38 26.5858L37.2929 27.293L38 28.0001ZM56.8492 46.8492L56.1421 47.5563L56.9241 48.3383L57.6237 47.4817L56.8492 46.8492ZM50.929 25.9667C55.6663 27.9093 59 32.5665 59 38H61C61 31.7272 57.1499 26.3561 51.6878 24.1162L50.929 25.9667ZM34 13C41.7631 13 48.3132 18.2043 50.3469 25.3164L52.2698 24.7665C49.9972 16.819 42.6795 11 34 11V13ZM19.8431 20.5847C22.8919 16.0103 28.0946 13 34 13V11C27.3978 11 21.5827 14.3683 18.1789 19.4755L19.8431 20.5847ZM5 36C5 28.0275 11.2204 21.507 19.0719 21.0282L18.9501 19.0319C10.0498 19.5747 3 26.9637 3 36H5ZM10.3726 47.5032C7.08674 44.7501 5 40.6192 5 36H3C3 41.2358 5.36815 45.9194 9.08812 49.0362L10.3726 47.5032ZM21.2929 35.293L9.02325 47.5626L10.4375 48.9769L22.7071 36.7072L21.2929 35.293ZM26.7072 39.2929L22.7071 35.293L21.2929 36.7072L25.2929 40.7072L26.7072 39.2929ZM37.2929 27.293L25.2929 39.293L26.7072 40.7072L38.7071 28.7072L37.2929 27.293ZM57.5563 46.142L38.7071 27.293L37.2929 28.7072L56.1421 47.5563L57.5563 46.142ZM59 38C59 41.1178 57.9037 43.9769 56.0746 46.2166L57.6237 47.4817C59.7337 44.8979 61 41.5955 61 38H59Z" fill="#888888"/>
</svg>
