<svg width="64" height="64" viewBox="0 0 64 64" fill="none" xmlns="http://www.w3.org/2000/svg">
<path d="M28 28L28.7071 28.7071L29.4142 28L28.7071 27.2929L28 28ZM16 40L15.2929 39.2929L14.5858 40L15.2929 40.7071L16 40ZM24 48L23.2929 48.7071L24 49.4142L24.7071 48.7071L24 48ZM36 36L36.7071 35.2929L36 34.5858L35.2929 35.2929L36 36ZM26 3C22.134 3 19 6.13401 19 10H21C21 7.23858 23.2386 5 26 5V3ZM54 3H26V5H54V3ZM61 10C61 6.13401 57.866 3 54 3V5C56.7614 5 59 7.23858 59 10H61ZM61 38V10H59V38H61ZM54 45C57.866 45 61 41.866 61 38H59C59 40.7614 56.7614 43 54 43V45ZM44 45H54V43H44V45ZM43 26V44H45V26H43ZM38 21C40.7614 21 43 23.2386 43 26H45C45 22.134 41.866 19 38 19V21ZM20 21H38V19H20V21ZM19 10V20H21V10H19ZM19.2929 20.7071L27.2929 28.7071L28.7071 27.2929L20.7071 19.2929L19.2929 20.7071ZM27.2929 27.2929L15.2929 39.2929L16.7071 40.7071L28.7071 28.7071L27.2929 27.2929ZM15.2929 40.7071L23.2929 48.7071L24.7071 47.2929L16.7071 39.2929L15.2929 40.7071ZM24.7071 48.7071L36.7071 36.7071L35.2929 35.2929L23.2929 47.2929L24.7071 48.7071ZM35.2929 36.7071L43.2929 44.7071L44.7071 43.2929L36.7071 35.2929L35.2929 36.7071ZM43 44V54H45V44H43ZM43 54C43 56.7614 40.7614 59 38 59V61C41.866 61 45 57.866 45 54H43ZM38 59H10V61H38V59ZM10 59C7.23858 59 5 56.7614 5 54H3C3 57.866 6.13401 61 10 61V59ZM5 54V26H3V54H5ZM5 26C5 23.2386 7.23858 21 10 21V19C6.13401 19 3 22.134 3 26H5ZM10 21H20V19H10V21Z" fill="#888888"/>
</svg>
