<svg width="64" height="64" viewBox="0 0 64 64" fill="none" xmlns="http://www.w3.org/2000/svg">
<path d="M32.8 28L31.9425 27.4855L31.0338 29H32.8V28ZM40 16L40.8575 16.5145L41.7662 15H40V16ZM44 28L44.7071 28.7071L46.4142 27H44V28ZM24 48H23V50.4142L24.7071 48.7071L24 48ZM24 36H25V35H24V36ZM12 36L11.1425 35.4855L10.2338 37H12V36ZM24 16V15H23.4338L23.1425 15.4855L24 16ZM38 44V43H37.5858L37.2929 43.2929L38 44ZM34 48L33.2929 47.2929L31.5858 49H34V48ZM52 44H53V43H52V44ZM52 48V49H53V48H52ZM5 14C5 11.2386 7.23858 9 10 9V7C6.13401 7 3 10.134 3 14H5ZM5 50V14H3V50H5ZM10 55C7.23858 55 5 52.7614 5 50H3C3 53.866 6.13401 57 10 57V55ZM54 55H10V57H54V55ZM59 50C59 52.7614 56.7614 55 54 55V57C57.866 57 61 53.866 61 50H59ZM59 14V50H61V14H59ZM54 9C56.7614 9 59 11.2386 59 14H61C61 10.134 57.866 7 54 7V9ZM10 9H54V7H10V9ZM33.6575 28.5145L40.8575 16.5145L39.1425 15.4855L31.9425 27.4855L33.6575 28.5145ZM44 27H32.8V29H44V27ZM24.7071 48.7071L44.7071 28.7071L43.2929 27.2929L23.2929 47.2929L24.7071 48.7071ZM23 36V48H25V36H23ZM12 37H24V35H12V37ZM23.1425 15.4855L11.1425 35.4855L12.8575 36.5145L24.8575 16.5145L23.1425 15.4855ZM40 15H24V17H40V15ZM37.2929 43.2929L33.2929 47.2929L34.7071 48.7071L38.7071 44.7071L37.2929 43.2929ZM52 43H38V45H52V43ZM53 48V44H51V48H53ZM34 49H52V47H34V49Z" fill="#888888"/>
</svg>
