<svg width="16" height="16" viewBox="0 0 16 16" fill="none" xmlns="http://www.w3.org/2000/svg">
<path fill-rule="evenodd" clip-rule="evenodd" d="M6.99994 2.20709C6.99994 1.76163 6.46137 1.53855 6.14638 1.85353L4.99994 2.99998L2.99994 0.999979L0.999939 2.99998L2.99994 4.99998L1.85349 6.14643C1.53851 6.46141 1.76159 6.99998 2.20705 6.99998L6.99994 6.99998V2.20709ZM8.99994 13.7929C8.99994 14.2383 9.53851 14.4614 9.85349 14.1464L10.9999 13L12.9999 15L14.9999 13L12.9999 11L14.1464 9.85353C14.4614 9.53855 14.2383 8.99998 13.7928 8.99998L8.99994 8.99998L8.99994 13.7929ZM14.1464 6.14642C14.4614 6.46141 14.2383 6.99998 13.7928 6.99998H8.99994V2.20709C8.99994 1.76163 9.53851 1.53855 9.85349 1.85353L10.9999 2.99998L12.9999 0.999979L14.9999 2.99998L12.9999 4.99998L14.1464 6.14642ZM2.20705 8.99998C1.76159 8.99998 1.53851 9.53855 1.85349 9.85353L2.99994 11L0.999939 13L2.99994 15L4.99994 13L6.14639 14.1464C6.46137 14.4614 6.99994 14.2383 6.99994 13.7929L6.99994 8.99998L2.20705 8.99998Z" fill="#ADCCFF"/>
</svg>
