<svg width="16" height="16" viewBox="0 0 16 16" fill="none" xmlns="http://www.w3.org/2000/svg">
<g id="03">
<path id="Primary" fill-rule="evenodd" clip-rule="evenodd" d="M9.99991 1H10.9999C10.9999 3.20914 12.7908 5 14.9999 5V6C12.7908 6 10.9999 7.79086 10.9999 10H9.99991C9.99991 7.79086 8.20905 6 5.99991 6V5C8.20905 5 9.99991 3.20914 9.99991 1ZM1.79199 9.5L2.14555 9.85355L3.79199 11.5L2.14555 13.1464L1.79199 13.5L2.4991 14.2071L2.85265 13.8536L4.4991 12.2071L6.14555 13.8536L6.4991 14.2071L7.20621 13.5L6.85265 13.1464L5.20621 11.5L6.85265 9.85355L7.20621 9.5L6.4991 8.79289L6.14555 9.14645L4.4991 10.7929L2.85265 9.14645L2.4991 8.79289L1.79199 9.5Z" fill="#ADCCFF"/>
</g>
</svg>
