<svg width="16" height="16" viewBox="0 0 16 16" fill="none" xmlns="http://www.w3.org/2000/svg">
<g id="Iconset/Icon818">
<path id="Secondary" fill-rule="evenodd" clip-rule="evenodd" d="M5 1V1.5C5 1.77614 5.22386 2 5.5 2H12.5C13.3284 2 14 2.67157 14 3.5C14 4.32843 13.3284 5 12.5 5H8H7C7 4.44772 7.44772 4 8 4H12.5C12.7761 4 13 3.77614 13 3.5C13 3.22386 12.7761 3 12.5 3H5.5C4.67157 3 4 2.32843 4 1.5V1H5Z" fill="#ADCCFF" fill-opacity="0.6"/>
<path id="Primary" fill-rule="evenodd" clip-rule="evenodd" d="M2 6C1.44772 6 1 6.44772 1 7V13C1 13.5523 1.44772 14 2 14H4L4.70711 14.7071C4.89464 14.8946 5.149 15 5.41421 15H10.5858C10.851 15 11.1054 14.8946 11.2929 14.7071L12 14H14C14.5523 14 15 13.5523 15 13V7C15 6.44772 14.5523 6 14 6H2ZM4 8H2V9H4V8ZM5 8H6V9H5V8ZM8 8H7V9H8V8ZM9 8H10V9H9V8ZM12 8H11V9H12V8ZM13 8H14V9H13V8ZM14 11V10H12V11H14ZM2 10H3V11H2V10ZM5 10H4V11H5V10ZM6 10H7V11H6V10ZM9 10H8V11H9V10ZM10 10H11V11H10V10ZM11 13V12H5V13H11Z" fill="#ADCCFF"/>
</g>
</svg>
