<svg width="16" height="16" viewBox="0 0 16 16" fill="none" xmlns="http://www.w3.org/2000/svg">
<g id="05">
<path id="Primary" fill-rule="evenodd" clip-rule="evenodd" d="M3.93934 6.06066L1.56068 8.43933C0.974887 9.02512 0.974892 9.97488 1.56069 10.5607L5.43946 14.4394C6.02525 15.0251 6.975 15.0251 7.56078 14.4393L9.93938 12.0607L3.93934 6.06066ZM12.0607 9.93936L6.06066 3.93934L8.56067 1.43934C8.84197 1.15804 9.2235 1 9.62133 1H15V6.37869C15 6.77651 14.842 7.15804 14.5607 7.43934L12.0607 9.93936ZM11.0001 4C11.0001 3.44772 11.4478 3 12.0001 3C12.5524 3 13.0001 3.44772 13.0001 4C13.0001 4.55228 12.5524 5 12.0001 5C11.4478 5 11.0001 4.55228 11.0001 4Z" fill="#ADCCFF"/>
<path id="Overlay" fill-rule="evenodd" clip-rule="evenodd" d="M0.792847 1.50001L1.1464 1.85357L14.1464 14.8536L14.5 15.2071L15.2071 14.5L14.8535 14.1465L1.85351 1.14646L1.49995 0.792908L0.792847 1.50001Z" fill="#EEEEEE"/>
</g>
</svg>
