<svg width="16" height="16" viewBox="0 0 16 16" fill="none" xmlns="http://www.w3.org/2000/svg">
<g id="01">
<path id="Secondary" fill-rule="evenodd" clip-rule="evenodd" d="M1.28988 6C1.10128 6.63371 1 7.30503 1 8C1 11.866 4.13401 15 8 15C11.866 15 15 11.866 15 8C15 4.13401 11.866 1 8 1C7.30503 1 6.63371 1.10128 6 1.28988V2V3H6.00003H7.00003V4V4.12601C7.31964 4.04375 7.65471 4 8 4C10.2091 4 12 5.79086 12 8C12 10.2091 10.2091 12 8 12C5.79086 12 4 10.2091 4 8C4 7.27143 4.19479 6.58835 4.53513 6H2.50003H2.00003H1.28988Z" fill="#ADCCFF" fill-opacity="0.6"/>
<path id="Primary" fill-rule="evenodd" clip-rule="evenodd" d="M6.50704 10.6028C6.94453 10.8543 7.45143 10.9987 7.99193 11.0001C8.41245 9.96108 9.49259 9.33758 10.6027 9.49312C10.8542 9.05563 10.9985 8.54873 11 8.00822C9.961 7.58767 9.33753 6.50754 9.49309 5.39748C9.05561 5.14596 8.54871 5.00157 8.00821 5.00012C7.58767 6.03919 6.50746 6.6627 5.39732 6.50708C5.14581 6.94456 5.00144 7.45145 5 7.99194C6.0391 8.41245 6.66265 9.49268 6.50704 10.6028Z" fill="#ADCCFF"/>
<path id="Overlay" fill-rule="evenodd" clip-rule="evenodd" d="M0.5 2H0V3H0.5H4.5H5V2H4.5H0.5ZM2.5 4H2V5H2.5H5.5H6V4H5.5H2.5Z" fill="#EEEEEE"/>
</g>
</svg>
