<svg width="16" height="16" viewBox="0 0 16 16" fill="none" xmlns="http://www.w3.org/2000/svg">
<g id="04">
<path id="Primary" fill-rule="evenodd" clip-rule="evenodd" d="M2 2.5C2 2.22386 2.22386 2 2.5 2H4.5H5V1H4.5H2.5C1.67157 1 1 1.67157 1 2.5V4.5V5H2V4.5V2.5ZM11.5 1H11V2H11.5H13.5C13.7761 2 14 2.22386 14 2.5V4.5V5H15V4.5V2.5C15 1.67157 14.3284 1 13.5 1H11.5ZM2 11.5V11H1V11.5V13.5C1 14.3284 1.67157 15 2.5 15H4.5H5V14H4.5H2.5C2.22386 14 2 13.7761 2 13.5V11.5ZM15 11.5V11H14V11.5V13.5C14 13.7761 13.7761 14 13.5 14H11.5H11V15H11.5H13.5C14.3284 15 15 14.3284 15 13.5V11.5ZM4 6.41421C4 6.149 4.10536 5.89464 4.29289 5.70711L5.70711 4.29289C5.89464 4.10536 6.149 4 6.41421 4H11C11.5523 4 12 4.44772 12 5V9.58579C12 9.851 11.8946 10.1054 11.7071 10.2929L10.2929 11.7071C10.1054 11.8946 9.851 12 9.58579 12H5C4.44772 12 4 11.5523 4 11V6.41421ZM11.2071 5.5L10.8536 5.85355L10 6.70711V10.5V11H9V10.5V7H5.5H5V6H5.5H9.29289L10.1464 5.14645L10.5 4.79289L11.2071 5.5Z" fill="#ADCCFF"/>
</g>
</svg>
