<svg width="398" height="64" viewBox="0 0 398 64" fill="none" xmlns="http://www.w3.org/2000/svg">
<path d="M0.928223 49V1.32H32.3522V8.04H8.48022V21.736H31.0722V28.456H8.48022V42.28H32.3522V49H0.928223Z" fill="#ADCCFF"/>
<path d="M36.1017 49V0.552002H43.3337V49H36.1017Z" fill="#ADCCFF"/>
<path d="M64.2052 49.384C60.5786 49.384 57.7626 48.36 55.7572 46.312C53.7519 44.264 52.7492 41.384 52.7492 37.672V20.904H46.6692V14.376H47.6292C49.2506 14.376 50.5092 13.9067 51.4052 12.968C52.3012 12.0293 52.7492 10.7493 52.7492 9.128V6.44H59.9812V14.376H67.8532V20.904H59.9812V37.352C59.9812 38.5467 60.1732 39.5707 60.5572 40.424C60.9412 41.2347 61.5599 41.8747 62.4132 42.344C63.2666 42.7707 64.3759 42.984 65.7412 42.984C66.0826 42.984 66.4666 42.9627 66.8932 42.92C67.3199 42.8773 67.7252 42.8347 68.1092 42.792V49C67.5119 49.0853 66.8506 49.1707 66.1252 49.256C65.3999 49.3413 64.7599 49.384 64.2052 49.384Z" fill="#ADCCFF"/>
<path d="M85.0227 49.384C81.3961 49.384 78.5801 48.36 76.5747 46.312C74.5694 44.264 73.5667 41.384 73.5667 37.672V20.904H67.4867V14.376H68.4467C70.0681 14.376 71.3267 13.9067 72.2227 12.968C73.1187 12.0293 73.5667 10.7493 73.5667 9.128V6.44H80.7987V14.376H88.6707V20.904H80.7987V37.352C80.7987 38.5467 80.9907 39.5707 81.3747 40.424C81.7587 41.2347 82.3774 41.8747 83.2307 42.344C84.0841 42.7707 85.1934 42.984 86.5587 42.984C86.9001 42.984 87.2841 42.9627 87.7107 42.92C88.1374 42.8773 88.5427 42.8347 88.9267 42.792V49C88.3294 49.0853 87.6681 49.1707 86.9427 49.256C86.2174 49.3413 85.5774 49.384 85.0227 49.384Z" fill="#ADCCFF"/>
<path d="M109.503 49.768C106.175 49.768 103.125 48.9787 100.351 47.4C97.6206 45.8213 95.4446 43.6667 93.8232 40.936C92.2019 38.2053 91.3912 35.112 91.3912 31.656C91.3912 28.1573 92.2019 25.064 93.8232 22.376C95.4446 19.6453 97.6206 17.512 100.351 15.976C103.082 14.3973 106.133 13.608 109.503 13.608C112.917 13.608 115.967 14.3973 118.655 15.976C121.386 17.512 123.541 19.6453 125.119 22.376C126.741 25.064 127.551 28.1573 127.551 31.656C127.551 35.1547 126.741 38.2693 125.119 41C123.498 43.7307 121.322 45.8853 118.591 47.464C115.861 49 112.831 49.768 109.503 49.768ZM109.503 43.048C111.551 43.048 113.365 42.5573 114.943 41.576C116.522 40.5947 117.759 39.2507 118.655 37.544C119.594 35.7947 120.063 33.832 120.063 31.656C120.063 29.48 119.594 27.5387 118.655 25.832C117.759 24.1253 116.522 22.7813 114.943 21.8C113.365 20.8187 111.551 20.328 109.503 20.328C107.498 20.328 105.685 20.8187 104.063 21.8C102.485 22.7813 101.226 24.1253 100.287 25.832C99.3912 27.5387 98.9432 29.48 98.9432 31.656C98.9432 33.832 99.3912 35.7947 100.287 37.544C101.226 39.2507 102.485 40.5947 104.063 41.576C105.685 42.5573 107.498 43.048 109.503 43.048Z" fill="#ADCCFF"/>
<path d="M150.548 49.768C147.86 49.768 145.406 49.2133 143.188 48.104C141.012 46.9947 139.326 45.3947 138.132 43.304L138.964 41.96V49H132.052V0.552002H139.284V21.544L138.132 19.88C139.412 17.9173 141.118 16.3813 143.252 15.272C145.385 14.1627 147.817 13.608 150.548 13.608C153.833 13.608 156.777 14.3973 159.38 15.976C162.025 17.5547 164.094 19.7093 165.588 22.44C167.124 25.1707 167.892 28.2427 167.892 31.656C167.892 35.0693 167.124 38.1413 165.588 40.872C164.094 43.6027 162.046 45.7787 159.444 47.4C156.841 48.9787 153.876 49.768 150.548 49.768ZM149.844 43.048C151.892 43.048 153.705 42.5573 155.284 41.576C156.862 40.5947 158.1 39.2507 158.996 37.544C159.934 35.7947 160.404 33.832 160.404 31.656C160.404 29.48 159.934 27.5387 158.996 25.832C158.1 24.1253 156.862 22.7813 155.284 21.8C153.705 20.8187 151.892 20.328 149.844 20.328C147.838 20.328 146.025 20.8187 144.404 21.8C142.825 22.7813 141.566 24.1253 140.628 25.832C139.732 27.5387 139.284 29.48 139.284 31.656C139.284 33.832 139.732 35.7947 140.628 37.544C141.566 39.2507 142.825 40.5947 144.404 41.576C146.025 42.5573 147.838 43.048 149.844 43.048Z" fill="#ADCCFF"/>
<path d="M188.632 49V1.32H205.016C208.131 1.32 210.862 1.93867 213.208 3.176C215.555 4.37067 217.368 6.07734 218.648 8.296C219.971 10.472 220.632 13.0107 220.632 15.912C220.632 19.2827 219.736 22.1627 217.944 24.552C216.195 26.9413 213.806 28.6267 210.776 29.608L221.912 49H215.896L204.248 28.456L207.704 30.44H193.752V49H188.632ZM193.752 25.64H205.272C207.32 25.64 209.112 25.256 210.648 24.488C212.184 23.6773 213.379 22.5467 214.232 21.096C215.086 19.6027 215.512 17.8533 215.512 15.848C215.512 13.8427 215.086 12.1147 214.232 10.664C213.379 9.21334 212.184 8.104 210.648 7.336C209.112 6.52534 207.32 6.12 205.272 6.12H193.752V25.64Z" fill="#ADCCFF"/>
<path d="M240.047 49.768C236.847 49.768 233.945 49 231.343 47.464C228.783 45.8853 226.756 43.7307 225.263 41C223.769 38.2693 223.023 35.176 223.023 31.72C223.023 28.264 223.748 25.2133 225.199 22.568C226.649 19.88 228.612 17.768 231.087 16.232C233.604 14.696 236.42 13.928 239.535 13.928C242.009 13.928 244.207 14.3973 246.127 15.336C248.089 16.232 249.753 17.4693 251.119 19.048C252.484 20.584 253.529 22.3333 254.255 24.296C254.98 26.216 255.343 28.2 255.343 30.248C255.343 30.6747 255.321 31.1653 255.279 31.72C255.236 32.232 255.172 32.7653 255.087 33.32H226.095V28.84H252.335L250.031 30.76C250.415 28.4133 250.137 26.3227 249.199 24.488C248.303 22.6107 247.001 21.1387 245.295 20.072C243.588 18.9627 241.668 18.408 239.535 18.408C237.401 18.408 235.417 18.9627 233.583 20.072C231.791 21.1813 230.383 22.7387 229.359 24.744C228.335 26.7067 227.929 29.0533 228.143 31.784C227.929 34.5147 228.356 36.904 229.423 38.952C230.532 40.9573 232.025 42.5147 233.903 43.624C235.823 44.7333 237.871 45.288 240.047 45.288C242.564 45.288 244.676 44.6907 246.383 43.496C248.089 42.3013 249.476 40.808 250.543 39.016L254.639 41.192C253.956 42.728 252.911 44.1573 251.503 45.48C250.095 46.76 248.409 47.8053 246.447 48.616C244.527 49.384 242.393 49.768 240.047 49.768Z" fill="#ADCCFF"/>
<path d="M276.926 49.768C273.555 49.768 270.59 48.9787 268.03 47.4C265.47 45.8213 263.464 43.688 262.014 41C260.563 38.2693 259.838 35.1973 259.838 31.784C259.838 28.3707 260.563 25.32 262.014 22.632C263.464 19.944 265.47 17.832 268.03 16.296C270.59 14.7173 273.555 13.928 276.926 13.928C279.059 13.928 281.064 14.312 282.942 15.08C284.819 15.848 286.483 16.8933 287.934 18.216C289.384 19.496 290.472 20.9893 291.198 22.696L286.846 24.936C285.992 23.1013 284.691 21.608 282.942 20.456C281.192 19.304 279.187 18.728 276.926 18.728C274.664 18.728 272.616 19.304 270.782 20.456C268.99 21.5653 267.56 23.1227 266.494 25.128C265.47 27.0907 264.958 29.3307 264.958 31.848C264.958 34.3227 265.47 36.5627 266.494 38.568C267.56 40.5307 268.99 42.088 270.782 43.24C272.616 44.392 274.664 44.968 276.926 44.968C279.187 44.968 281.171 44.392 282.878 43.24C284.627 42.088 285.95 40.552 286.846 38.632L291.198 41C290.472 42.664 289.384 44.1573 287.934 45.48C286.483 46.8027 284.819 47.848 282.942 48.616C281.064 49.384 279.059 49.768 276.926 49.768Z" fill="#ADCCFF"/>
<path d="M297.061 49V0.552002H301.861V49H297.061Z" fill="#ADCCFF"/>
<path d="M319.046 49.768C316.87 49.768 314.928 49.3627 313.222 48.552C311.515 47.6987 310.171 46.5467 309.19 45.096C308.208 43.6453 307.718 41.9813 307.718 40.104C307.718 38.312 308.102 36.6907 308.87 35.24C309.638 33.7467 310.832 32.488 312.454 31.464C314.075 30.44 316.144 29.7147 318.662 29.288L332.102 27.048V31.4L319.814 33.448C317.339 33.8747 315.547 34.664 314.438 35.816C313.371 36.968 312.838 38.3333 312.838 39.912C312.838 41.448 313.435 42.7493 314.63 43.816C315.867 44.8827 317.446 45.416 319.366 45.416C321.712 45.416 323.76 44.9253 325.51 43.944C327.259 42.92 328.624 41.5547 329.606 39.848C330.587 38.1413 331.078 36.2427 331.078 34.152V25.448C331.078 23.4 330.331 21.736 328.838 20.456C327.344 19.176 325.403 18.536 323.014 18.536C320.923 18.536 319.088 19.0693 317.51 20.136C315.931 21.16 314.758 22.504 313.99 24.168L309.638 21.8C310.278 20.3493 311.28 19.0267 312.646 17.832C314.054 16.6373 315.654 15.6987 317.446 15.016C319.238 14.2907 321.094 13.928 323.014 13.928C325.531 13.928 327.75 14.4187 329.67 15.4C331.632 16.3813 333.147 17.7467 334.214 19.496C335.323 21.2027 335.878 23.1867 335.878 25.448V49H331.078V42.152L331.782 42.856C331.184 44.136 330.246 45.3093 328.966 46.376C327.728 47.4 326.256 48.232 324.55 48.872C322.886 49.4693 321.051 49.768 319.046 49.768Z" fill="#ADCCFF"/>
<path d="M355.095 49.768C351.809 49.768 348.929 48.936 346.455 47.272C343.98 45.608 342.188 43.3467 341.079 40.488L345.111 38.568C346.092 40.6587 347.457 42.3227 349.207 43.56C350.999 44.7973 352.961 45.416 355.095 45.416C357.143 45.416 358.871 44.9253 360.279 43.944C361.687 42.92 362.391 41.5973 362.391 39.976C362.391 38.7813 362.049 37.8427 361.367 37.16C360.684 36.4347 359.895 35.88 358.999 35.496C358.103 35.112 357.313 34.8347 356.631 34.664L351.703 33.256C348.545 32.36 346.263 31.1013 344.855 29.48C343.447 27.8587 342.743 25.9813 342.743 23.848C342.743 21.8427 343.255 20.0933 344.279 18.6C345.303 17.1067 346.689 15.9547 348.439 15.144C350.188 14.3333 352.129 13.928 354.263 13.928C357.164 13.928 359.788 14.696 362.135 16.232C364.524 17.7253 366.209 19.816 367.191 22.504L363.095 24.424C362.241 22.504 361.004 21.0107 359.383 19.944C357.804 18.8347 356.033 18.28 354.071 18.28C352.151 18.28 350.615 18.7707 349.463 19.752C348.311 20.7333 347.735 21.9707 347.735 23.464C347.735 24.616 348.033 25.5333 348.631 26.216C349.228 26.8987 349.911 27.4107 350.679 27.752C351.489 28.0933 352.193 28.3493 352.791 28.52L358.487 30.184C361.26 30.9947 363.415 32.2533 364.951 33.96C366.529 35.6667 367.319 37.672 367.319 39.976C367.319 41.8533 366.785 43.5387 365.719 45.032C364.695 46.5253 363.265 47.6987 361.431 48.552C359.596 49.3627 357.484 49.768 355.095 49.768Z" fill="#ADCCFF"/>
<path d="M385.097 49.768C381.812 49.768 378.932 48.936 376.457 47.272C373.983 45.608 372.191 43.3467 371.081 40.488L375.113 38.568C376.095 40.6587 377.46 42.3227 379.209 43.56C381.001 44.7973 382.964 45.416 385.097 45.416C387.145 45.416 388.873 44.9253 390.281 43.944C391.689 42.92 392.393 41.5973 392.393 39.976C392.393 38.7813 392.052 37.8427 391.369 37.16C390.687 36.4347 389.897 35.88 389.001 35.496C388.105 35.112 387.316 34.8347 386.633 34.664L381.705 33.256C378.548 32.36 376.265 31.1013 374.857 29.48C373.449 27.8587 372.745 25.9813 372.745 23.848C372.745 21.8427 373.257 20.0933 374.281 18.6C375.305 17.1067 376.692 15.9547 378.441 15.144C380.191 14.3333 382.132 13.928 384.265 13.928C387.167 13.928 389.791 14.696 392.137 16.232C394.527 17.7253 396.212 19.816 397.193 22.504L393.097 24.424C392.244 22.504 391.007 21.0107 389.385 19.944C387.807 18.8347 386.036 18.28 384.073 18.28C382.153 18.28 380.617 18.7707 379.465 19.752C378.313 20.7333 377.737 21.9707 377.737 23.464C377.737 24.616 378.036 25.5333 378.633 26.216C379.231 26.8987 379.913 27.4107 380.681 27.752C381.492 28.0933 382.196 28.3493 382.793 28.52L388.489 30.184C391.263 30.9947 393.417 32.2533 394.953 33.96C396.532 35.6667 397.321 37.672 397.321 39.976C397.321 41.8533 396.788 43.5387 395.721 45.032C394.697 46.5253 393.268 47.6987 391.433 48.552C389.599 49.3627 387.487 49.768 385.097 49.768Z" fill="#ADCCFF"/>
</svg>
