<svg width="407" height="63" viewBox="0 0 407 63" fill="none" xmlns="http://www.w3.org/2000/svg">
<path d="M0 48.448V0.767998H31.68V8.448H8.704V20.672H30.4V28.352H8.704V40.768H31.68V48.448H0Z" fill="#ADCCFF"/>
<path d="M35.4385 48.448V0H43.8225V48.448H35.4385Z" fill="#ADCCFF"/>
<path d="M65.5155 48.832C61.5902 48.832 58.5395 47.7653 56.3635 45.632C54.2302 43.456 53.1635 40.4053 53.1635 36.48V21.12H47.1475V13.632H47.7875C49.4942 13.632 50.8168 13.184 51.7555 12.288C52.6942 11.392 53.1635 10.0907 53.1635 8.384V5.696H61.5475V13.632H69.5475V21.12H61.5475V36.032C61.5475 37.184 61.7395 38.1653 62.1235 38.976C62.5502 39.7867 63.1902 40.4053 64.0435 40.832C64.9395 41.2587 66.0702 41.472 67.4355 41.472C67.7342 41.472 68.0755 41.4507 68.4595 41.408C68.8862 41.3653 69.2915 41.3227 69.6755 41.28V48.448C69.0782 48.5333 68.3955 48.6187 67.6275 48.704C66.8595 48.7893 66.1555 48.832 65.5155 48.832Z" fill="#ADCCFF"/>
<path d="M86.833 48.832C82.9077 48.832 79.857 47.7653 77.681 45.632C75.5477 43.456 74.481 40.4053 74.481 36.48V21.12H68.465V13.632H69.105C70.8117 13.632 72.1343 13.184 73.073 12.288C74.0117 11.392 74.481 10.0907 74.481 8.384V5.696H82.865V13.632H90.865V21.12H82.865V36.032C82.865 37.184 83.057 38.1653 83.441 38.976C83.8677 39.7867 84.5077 40.4053 85.361 40.832C86.257 41.2587 87.3877 41.472 88.753 41.472C89.0517 41.472 89.393 41.4507 89.777 41.408C90.2037 41.3653 90.609 41.3227 90.993 41.28V48.448C90.3957 48.5333 89.713 48.6187 88.945 48.704C88.177 48.7893 87.473 48.832 86.833 48.832Z" fill="#ADCCFF"/>
<path d="M112.19 49.216C108.777 49.216 105.662 48.4267 102.846 46.848C100.073 45.2693 97.854 43.1147 96.19 40.384C94.5687 37.6533 93.758 34.5387 93.758 31.04C93.758 27.5413 94.5687 24.4267 96.19 21.696C97.854 18.9653 100.073 16.8107 102.846 15.232C105.619 13.6533 108.734 12.864 112.19 12.864C115.603 12.864 118.697 13.6533 121.47 15.232C124.243 16.8107 126.441 18.9653 128.062 21.696C129.726 24.384 130.558 27.4987 130.558 31.04C130.558 34.5387 129.726 37.6533 128.062 40.384C126.398 43.1147 124.179 45.2693 121.406 46.848C118.633 48.4267 115.561 49.216 112.19 49.216ZM112.19 41.536C114.067 41.536 115.71 41.088 117.118 40.192C118.569 39.296 119.699 38.0587 120.51 36.48C121.363 34.8587 121.79 33.0453 121.79 31.04C121.79 28.992 121.363 27.2 120.51 25.664C119.699 24.0853 118.569 22.848 117.118 21.952C115.71 21.0133 114.067 20.544 112.19 20.544C110.27 20.544 108.585 21.0133 107.134 21.952C105.683 22.848 104.531 24.0853 103.678 25.664C102.867 27.2 102.462 28.992 102.462 31.04C102.462 33.0453 102.867 34.8587 103.678 36.48C104.531 38.0587 105.683 39.296 107.134 40.192C108.585 41.088 110.27 41.536 112.19 41.536Z" fill="#ADCCFF"/>
<path d="M154.004 49.216C151.487 49.216 149.161 48.7253 147.028 47.744C144.937 46.72 143.273 45.2693 142.036 43.392L142.868 41.728V48.448H134.996V0H143.38V20.544L142.1 18.816C143.295 16.9387 144.916 15.488 146.964 14.464C149.012 13.3973 151.38 12.864 154.068 12.864C157.353 12.864 160.319 13.6747 162.964 15.296C165.609 16.9173 167.7 19.0933 169.236 21.824C170.815 24.5547 171.604 27.6267 171.604 31.04C171.604 34.4107 170.836 37.4827 169.3 40.256C167.764 43.0293 165.673 45.2267 163.028 46.848C160.383 48.4267 157.375 49.216 154.004 49.216ZM153.044 41.536C154.964 41.536 156.671 41.088 158.164 40.192C159.657 39.296 160.809 38.0587 161.62 36.48C162.473 34.9013 162.9 33.088 162.9 31.04C162.9 28.992 162.473 27.2 161.62 25.664C160.809 24.0853 159.657 22.848 158.164 21.952C156.671 21.0133 154.964 20.544 153.044 20.544C151.209 20.544 149.545 20.992 148.052 21.888C146.601 22.784 145.449 24.0427 144.596 25.664C143.785 27.2427 143.38 29.0347 143.38 31.04C143.38 33.088 143.785 34.9013 144.596 36.48C145.449 38.0587 146.601 39.296 148.052 40.192C149.545 41.088 151.209 41.536 153.044 41.536Z" fill="#ADCCFF"/>
<path d="M191.704 48.448V0.767998H208.536C211.693 0.767998 214.467 1.36533 216.856 2.56C219.245 3.75467 221.101 5.46133 222.424 7.68C223.789 9.89867 224.472 12.5013 224.472 15.488C224.472 18.8587 223.619 21.7173 221.912 24.064C220.205 26.4107 217.901 28.096 215 29.12L226.072 48.448H218.776L207.128 27.776L211.288 30.208H197.976V48.448H191.704ZM197.976 24.448H208.728C210.605 24.448 212.248 24.0853 213.656 23.36C215.064 22.6347 216.152 21.5893 216.92 20.224C217.731 18.8587 218.136 17.28 218.136 15.488C218.136 13.6533 217.731 12.0747 216.92 10.752C216.152 9.38667 215.064 8.34133 213.656 7.616C212.248 6.89067 210.605 6.528 208.728 6.528H197.976V24.448Z" fill="#ADCCFF"/>
<path d="M244.514 49.216C241.186 49.216 238.221 48.4267 235.618 46.848C233.016 45.2693 230.968 43.1147 229.475 40.384C227.981 37.6107 227.234 34.5173 227.234 31.104C227.234 27.648 227.96 24.576 229.411 21.888C230.904 19.2 232.909 17.088 235.426 15.552C237.986 13.9733 240.845 13.184 244.003 13.184C246.563 13.184 248.824 13.6533 250.786 14.592C252.792 15.488 254.477 16.7253 255.842 18.304C257.25 19.84 258.317 21.6107 259.043 23.616C259.811 25.5787 260.194 27.6267 260.194 29.76C260.194 30.2293 260.152 30.7627 260.066 31.36C260.024 31.9147 259.96 32.448 259.875 32.96H231.587V27.84H256.419L253.603 30.144C253.987 27.9253 253.773 25.9413 252.963 24.192C252.152 22.4427 250.957 21.056 249.379 20.032C247.8 19.008 246.008 18.496 244.003 18.496C241.997 18.496 240.163 19.008 238.499 20.032C236.835 21.056 235.533 22.528 234.594 24.448C233.698 26.3253 233.336 28.5653 233.507 31.168C233.336 33.6853 233.72 35.904 234.659 37.824C235.64 39.7013 237.005 41.1733 238.755 42.24C240.547 43.264 242.488 43.776 244.579 43.776C246.883 43.776 248.824 43.2427 250.402 42.176C251.981 41.1093 253.261 39.744 254.243 38.08L259.234 40.64C258.552 42.2187 257.485 43.6693 256.035 44.992C254.627 46.272 252.941 47.296 250.979 48.064C249.058 48.832 246.904 49.216 244.514 49.216Z" fill="#ADCCFF"/>
<path d="M282.035 49.216C278.664 49.216 275.656 48.4267 273.011 46.848C270.408 45.2693 268.36 43.1147 266.867 40.384C265.374 37.6533 264.627 34.5813 264.627 31.168C264.627 27.712 265.374 24.64 266.867 21.952C268.36 19.264 270.408 17.1307 273.011 15.552C275.656 13.9733 278.664 13.184 282.035 13.184C284.296 13.184 286.408 13.5893 288.371 14.4C290.334 15.2107 292.062 16.2987 293.555 17.664C295.048 19.0293 296.136 20.6293 296.819 22.464L291.507 25.024C290.696 23.232 289.459 21.7813 287.795 20.672C286.131 19.52 284.211 18.944 282.035 18.944C279.944 18.944 278.046 19.4773 276.339 20.544C274.675 21.6107 273.352 23.0613 272.371 24.896C271.39 26.7307 270.899 28.8427 270.899 31.232C270.899 33.536 271.39 35.6267 272.371 37.504C273.352 39.3387 274.675 40.7893 276.339 41.856C278.046 42.9227 279.944 43.456 282.035 43.456C284.211 43.456 286.131 42.9013 287.795 41.792C289.459 40.64 290.696 39.1253 291.507 37.248L296.819 39.936C296.136 41.728 295.048 43.328 293.555 44.736C292.062 46.1013 290.334 47.1893 288.371 48C286.408 48.8107 284.296 49.216 282.035 49.216Z" fill="#ADCCFF"/>
<path d="M302.677 48.448V0H308.629V48.448H302.677Z" fill="#ADCCFF"/>
<path d="M326.057 49.216C323.796 49.216 321.79 48.8107 320.041 48C318.334 47.1467 316.99 45.9947 316.009 44.544C315.028 43.0507 314.537 41.344 314.537 39.424C314.537 37.5893 314.921 35.9467 315.689 34.496C316.5 33.0027 317.737 31.744 319.401 30.72C321.108 29.696 323.241 28.9707 325.801 28.544L338.601 26.432V31.424L327.145 33.344C324.926 33.728 323.305 34.432 322.281 35.456C321.3 36.48 320.809 37.7387 320.809 39.232C320.809 40.64 321.364 41.8133 322.473 42.752C323.625 43.6907 325.054 44.16 326.761 44.16C328.937 44.16 330.814 43.712 332.393 42.816C334.014 41.8773 335.273 40.6187 336.169 39.04C337.108 37.4613 337.577 35.712 337.577 33.792V25.024C337.577 23.1467 336.873 21.632 335.465 20.48C334.1 19.2853 332.286 18.688 330.025 18.688C328.062 18.688 326.313 19.2 324.777 20.224C323.284 21.2053 322.174 22.528 321.449 24.192L316.265 21.504C316.905 19.9253 317.929 18.5173 319.337 17.28C320.745 16 322.388 14.9973 324.265 14.272C326.142 13.5467 328.105 13.184 330.153 13.184C332.798 13.184 335.124 13.696 337.129 14.72C339.134 15.7013 340.692 17.088 341.801 18.88C342.953 20.6293 343.529 22.6773 343.529 25.024V48.448H337.705V41.92L338.793 42.304C338.068 43.6693 337.086 44.864 335.849 45.888C334.612 46.912 333.161 47.7227 331.497 48.32C329.833 48.9173 328.02 49.216 326.057 49.216Z" fill="#ADCCFF"/>
<path d="M363.189 49.216C359.733 49.216 356.725 48.3627 354.165 46.656C351.605 44.9493 349.792 42.6453 348.725 39.744L353.461 37.44C354.443 39.488 355.787 41.1093 357.493 42.304C359.2 43.4987 361.099 44.096 363.189 44.096C365.067 44.096 366.624 43.648 367.861 42.752C369.099 41.856 369.717 40.6827 369.717 39.232C369.717 38.208 369.419 37.3973 368.822 36.8C368.267 36.16 367.584 35.6693 366.773 35.328C365.963 34.944 365.216 34.6667 364.534 34.496L359.349 33.024C356.235 32.128 353.952 30.848 352.501 29.184C351.093 27.52 350.389 25.5787 350.389 23.36C350.389 21.312 350.902 19.5413 351.926 18.048C352.992 16.512 354.422 15.3173 356.214 14.464C358.048 13.6107 360.096 13.184 362.357 13.184C365.387 13.184 368.096 13.952 370.486 15.488C372.918 17.024 374.645 19.1787 375.669 21.952L370.805 24.192C370.037 22.4 368.885 20.992 367.349 19.968C365.813 18.9013 364.085 18.368 362.165 18.368C360.416 18.368 359.029 18.816 358.005 19.712C356.981 20.5653 356.469 21.6533 356.469 22.976C356.469 23.9573 356.725 24.768 357.237 25.408C357.749 26.0053 358.368 26.4747 359.094 26.816C359.819 27.1147 360.523 27.3707 361.206 27.584L366.837 29.248C369.653 30.0587 371.83 31.3173 373.366 33.024C374.944 34.7307 375.733 36.7787 375.733 39.168C375.733 41.088 375.2 42.816 374.133 44.352C373.067 45.888 371.595 47.0827 369.717 47.936C367.84 48.7893 365.664 49.216 363.189 49.216Z" fill="#ADCCFF"/>
<path d="M393.957 49.216C390.501 49.216 387.493 48.3627 384.933 46.656C382.373 44.9493 380.56 42.6453 379.493 39.744L384.229 37.44C385.21 39.488 386.554 41.1093 388.261 42.304C389.968 43.4987 391.866 44.096 393.957 44.096C395.834 44.096 397.392 43.648 398.629 42.752C399.866 41.856 400.485 40.6827 400.485 39.232C400.485 38.208 400.186 37.3973 399.589 36.8C399.034 36.16 398.352 35.6693 397.541 35.328C396.73 34.944 395.984 34.6667 395.301 34.496L390.117 33.024C387.002 32.128 384.72 30.848 383.269 29.184C381.861 27.52 381.157 25.5787 381.157 23.36C381.157 21.312 381.669 19.5413 382.693 18.048C383.76 16.512 385.189 15.3173 386.981 14.464C388.816 13.6107 390.864 13.184 393.125 13.184C396.154 13.184 398.864 13.952 401.253 15.488C403.685 17.024 405.413 19.1787 406.437 21.952L401.573 24.192C400.805 22.4 399.653 20.992 398.117 19.968C396.581 18.9013 394.853 18.368 392.933 18.368C391.184 18.368 389.797 18.816 388.773 19.712C387.749 20.5653 387.237 21.6533 387.237 22.976C387.237 23.9573 387.493 24.768 388.005 25.408C388.517 26.0053 389.136 26.4747 389.861 26.816C390.586 27.1147 391.29 27.3707 391.973 27.584L397.605 29.248C400.421 30.0587 402.597 31.3173 404.133 33.024C405.712 34.7307 406.501 36.7787 406.501 39.168C406.501 41.088 405.968 42.816 404.901 44.352C403.834 45.888 402.362 47.0827 400.485 47.936C398.608 48.7893 396.432 49.216 393.957 49.216Z" fill="#ADCCFF"/>
</svg>
