<svg width="376" height="64" viewBox="0 0 376 64" fill="none" xmlns="http://www.w3.org/2000/svg">
<path fill-rule="evenodd" clip-rule="evenodd" d="M0.927979 1.32V49H32.352V42.28H8.47998V28.456H31.072V21.736H8.47998V8.04H32.352V1.32H0.927979ZM36.1015 0.552002V49H43.3335V0.552002H36.1015ZM55.757 46.312C57.7623 48.36 60.5783 49.384 64.205 49.384C64.7597 49.384 65.3997 49.3413 66.125 49.256C66.8503 49.1707 67.5117 49.0853 68.109 49V42.792C67.725 42.8347 67.3196 42.8773 66.893 42.92C66.4663 42.9627 66.0823 42.984 65.741 42.984C64.3756 42.984 63.2663 42.7707 62.413 42.344C61.5596 41.8747 60.941 41.2347 60.557 40.424C60.173 39.5707 59.981 38.5467 59.981 37.352V20.904H67.4865H67.853H73.5665V37.672C73.5665 41.384 74.5691 44.264 76.5745 46.312C78.5798 48.36 81.3958 49.384 85.0225 49.384C85.5771 49.384 86.2171 49.3413 86.9425 49.256C87.6678 49.1707 88.3291 49.0853 88.9265 49V42.792C88.5425 42.8347 88.1372 42.8773 87.7105 42.92C87.2838 42.9627 86.8998 42.984 86.5585 42.984C85.1932 42.984 84.0838 42.7707 83.2305 42.344C82.3771 41.8747 81.7585 41.2347 81.3745 40.424C80.9905 39.5707 80.7985 38.5467 80.7985 37.352V20.904H88.6705V14.376H80.7985V6.44H73.5665V9.128C73.5665 10.7493 73.1185 12.0293 72.2225 12.968C71.3265 13.9067 70.0678 14.376 68.4465 14.376H67.853H67.4865H59.981V6.44H52.749V9.128C52.749 10.7493 52.301 12.0293 51.405 12.968C50.509 13.9067 49.2503 14.376 47.629 14.376H46.669V20.904H52.749V37.672C52.749 41.384 53.7516 44.264 55.757 46.312ZM100.351 47.4C103.124 48.9787 106.175 49.768 109.503 49.768C112.831 49.768 115.86 49 118.591 47.464C121.322 45.8853 123.498 43.7307 125.119 41C126.74 38.2693 127.551 35.1547 127.551 31.656C127.551 28.1573 126.74 25.064 125.119 22.376C123.54 19.6453 121.386 17.512 118.655 15.976C115.967 14.3973 112.916 13.608 109.503 13.608C106.132 13.608 103.082 14.3973 100.351 15.976C97.6203 17.512 95.4443 19.6453 93.823 22.376C92.2016 25.064 91.391 28.1573 91.391 31.656C91.391 35.112 92.2016 38.2053 93.823 40.936C95.4443 43.6667 97.6203 45.8213 100.351 47.4ZM114.943 41.576C113.364 42.5573 111.551 43.048 109.503 43.048C107.498 43.048 105.684 42.5573 104.063 41.576C102.484 40.5947 101.226 39.2507 100.287 37.544C99.391 35.7947 98.943 33.832 98.943 31.656C98.943 29.48 99.391 27.5387 100.287 25.832C101.226 24.1253 102.484 22.7813 104.063 21.8C105.684 20.8187 107.498 20.328 109.503 20.328C111.551 20.328 113.364 20.8187 114.943 21.8C116.522 22.7813 117.759 24.1253 118.655 25.832C119.594 27.5387 120.063 29.48 120.063 31.656C120.063 33.832 119.594 35.7947 118.655 37.544C117.759 39.2507 116.522 40.5947 114.943 41.576ZM143.187 48.104C145.406 49.2133 147.859 49.768 150.547 49.768C153.875 49.768 156.841 48.9787 159.443 47.4C162.046 45.7787 164.094 43.6027 165.587 40.872C167.123 38.1413 167.891 35.0693 167.891 31.656C167.891 28.2427 167.123 25.1707 165.587 22.44C164.094 19.7093 162.025 17.5547 159.379 15.976C156.777 14.3973 153.833 13.608 150.547 13.608C147.817 13.608 145.385 14.1627 143.251 15.272C141.704 16.0765 140.382 17.1053 139.283 18.3585V0.552002H132.051V49H138.963V44.5756C140.068 46.0553 141.476 47.2314 143.187 48.104ZM155.283 41.576C153.705 42.5573 151.891 43.048 149.843 43.048C147.838 43.048 146.025 42.5573 144.403 41.576C142.825 40.5947 141.566 39.2507 140.627 37.544C139.731 35.7947 139.283 33.832 139.283 31.656C139.283 29.48 139.731 27.5387 140.627 25.832C141.566 24.1253 142.825 22.7813 144.403 21.8C146.025 20.8187 147.838 20.328 149.843 20.328C151.891 20.328 153.705 20.8187 155.283 21.8C156.862 22.7813 158.099 24.1253 158.995 25.832C159.934 27.5387 160.403 29.48 160.403 31.656C160.403 33.832 159.934 35.7947 158.995 37.544C158.099 39.2507 156.862 40.5947 155.283 41.576ZM188.632 1.32V49H193.752V30.44H205.373L215.896 49H221.912L210.776 29.608C213.805 28.6267 216.195 26.9413 217.944 24.552C219.736 22.1627 220.632 19.2827 220.632 15.912C220.632 13.0107 219.971 10.472 218.648 8.296C217.368 6.07734 215.555 4.37067 213.208 3.176C210.861 1.93867 208.131 1.32 205.016 1.32H188.632ZM205.272 25.64H193.752V6.12H205.272C207.32 6.12 209.112 6.52534 210.648 7.336C212.184 8.104 213.379 9.21334 214.232 10.664C215.085 12.1147 215.512 13.8427 215.512 15.848C215.512 17.8533 215.085 19.6027 214.232 21.096C213.379 22.5467 212.184 23.6773 210.648 24.488C209.112 25.256 207.32 25.64 205.272 25.64ZM231.342 47.464C233.945 49 236.846 49.768 240.046 49.768C242.393 49.768 244.526 49.384 246.446 48.616C248.409 47.8053 250.094 46.76 251.502 45.48C252.91 44.1573 253.956 42.728 254.638 41.192L250.542 39.016C249.476 40.808 248.089 42.3013 246.382 43.496C244.676 44.6907 242.564 45.288 240.046 45.288C237.87 45.288 235.822 44.7333 233.902 43.624C232.025 42.5147 230.532 40.9573 229.422 38.952C228.561 37.2975 228.117 35.4201 228.09 33.32H255.086C255.172 32.7653 255.236 32.232 255.278 31.72C255.321 31.1653 255.342 30.6747 255.342 30.248C255.342 28.2 254.98 26.216 254.254 24.296C253.529 22.3333 252.484 20.584 251.118 19.048C249.753 17.4693 248.089 16.232 246.126 15.336C244.206 14.3973 242.009 13.928 239.534 13.928C236.42 13.928 233.604 14.696 231.086 16.232C228.612 17.768 226.649 19.88 225.198 22.568C223.748 25.2133 223.022 28.264 223.022 31.72C223.022 35.176 223.769 38.2693 225.262 41C226.756 43.7307 228.782 45.8853 231.342 47.464ZM228.167 28.84C228.326 27.3269 228.723 25.9616 229.358 24.744C230.382 22.7387 231.79 21.1813 233.582 20.072C235.417 18.9627 237.401 18.408 239.534 18.408C241.668 18.408 243.588 18.9627 245.294 20.072C247.001 21.1387 248.302 22.6107 249.198 24.488C249.873 25.8065 250.206 27.2571 250.198 28.84H228.167ZM261.245 0.552002V49H266.045V0.552002H261.245ZM273.31 14.696V49H278.11V14.696H273.31ZM273.31 1.32V8.36H278.11V1.32H273.31ZM295.103 61.992C297.109 62.7173 299.285 63.08 301.631 63.08C304.789 63.08 307.583 62.3973 310.015 61.032C312.49 59.7093 314.41 57.8747 315.775 55.528C317.183 53.224 317.887 50.6 317.887 47.656V14.696H313.087V19.8924C311.859 18.244 310.302 16.8959 308.415 15.848C306.154 14.568 303.637 13.928 300.863 13.928C297.621 13.928 294.719 14.696 292.159 16.232C289.642 17.768 287.637 19.8373 286.143 22.44C284.693 25.0427 283.967 27.9653 283.967 31.208C283.967 34.408 284.693 37.3307 286.143 39.976C287.637 42.5787 289.663 44.648 292.223 46.184C294.783 47.72 297.663 48.488 300.863 48.488C303.637 48.488 306.197 47.8267 308.543 46.504C310.431 45.406 311.945 43.9493 313.087 42.1338V47.656C313.087 49.96 312.554 51.9013 311.487 53.48C310.421 55.0587 309.013 56.2533 307.263 57.064C305.514 57.8747 303.594 58.28 301.503 58.28C298.773 58.28 296.533 57.6827 294.783 56.488C293.034 55.2933 291.818 53.8853 291.135 52.264L286.719 54.632C287.487 56.296 288.575 57.7467 289.983 58.984C291.434 60.264 293.141 61.2667 295.103 61.992ZM307.135 42.024C305.343 43.1333 303.338 43.688 301.119 43.688C298.815 43.688 296.746 43.1333 294.911 42.024C293.119 40.872 291.69 39.3573 290.623 37.48C289.599 35.56 289.087 33.4693 289.087 31.208C289.087 28.904 289.599 26.8133 290.623 24.936C291.69 23.0587 293.141 21.5653 294.975 20.456C296.81 19.304 298.858 18.728 301.119 18.728C303.338 18.728 305.343 19.304 307.135 20.456C308.927 21.5653 310.357 23.08 311.423 25C312.533 26.8773 313.087 28.9467 313.087 31.208C313.087 33.4693 312.533 35.56 311.423 37.48C310.357 39.3573 308.927 40.872 307.135 42.024ZM325.19 0.552002V49H329.99V28.584C329.99 26.536 330.374 24.7867 331.142 23.336C331.953 21.8427 333.041 20.712 334.406 19.944C335.772 19.1333 337.308 18.728 339.014 18.728C340.721 18.728 342.236 19.1333 343.558 19.944C344.924 20.712 345.99 21.8213 346.758 23.272C347.526 24.7227 347.91 26.4933 347.91 28.584V49H352.71V26.728C352.71 24.296 352.134 22.12 350.982 20.2C349.873 18.2373 348.337 16.7013 346.374 15.592C344.454 14.4827 342.278 13.928 339.846 13.928C337.286 13.928 335.025 14.568 333.062 15.848C331.812 16.6814 330.788 17.7137 329.99 18.945V0.552002H325.19ZM365.334 46.696C366.998 48.488 369.366 49.384 372.438 49.384C372.822 49.384 373.334 49.3413 373.974 49.256C374.614 49.2133 375.19 49.128 375.702 49V44.712C375.361 44.7547 374.955 44.7973 374.486 44.84C374.017 44.8827 373.611 44.904 373.27 44.904C371.862 44.904 370.731 44.648 369.878 44.136C369.067 43.624 368.491 42.9413 368.15 42.088C367.809 41.192 367.638 40.168 367.638 39.016V19.496H375.19V14.696H367.638V6.76H362.838V9.64C362.838 11.0907 362.411 12.3067 361.558 13.288C360.705 14.2267 359.553 14.696 358.102 14.696H356.502V19.496H362.838V39.016C362.838 42.344 363.67 44.904 365.334 46.696Z" fill="#F3C846"/>
</svg>
