<svg width="387" height="64" viewBox="0 0 387 64" fill="none" xmlns="http://www.w3.org/2000/svg">
<path fill-rule="evenodd" clip-rule="evenodd" d="M0.60791 1.32V49H32.2879V41.32H9.31191V28.904H31.0079V21.224H9.31191V9H32.2879V1.32H0.60791ZM36.0464 0.552002V49H44.4304V0.552002H36.0464ZM56.9714 46.184C59.1474 48.3173 62.1981 49.384 66.1234 49.384C66.7634 49.384 67.4674 49.3413 68.2354 49.256C69.0034 49.1707 69.6861 49.0853 70.2834 49V41.832C69.8994 41.8747 69.4941 41.9173 69.0674 41.96C68.6834 42.0027 68.3421 42.024 68.0434 42.024C66.6781 42.024 65.5474 41.8107 64.6514 41.384C63.7981 40.9573 63.1581 40.3387 62.7314 39.528C62.3474 38.7173 62.1554 37.736 62.1554 36.584V21.672H69.0729H70.1554H75.0889V37.032C75.0889 40.9573 76.1556 44.008 78.2889 46.184C80.4649 48.3173 83.5156 49.384 87.4409 49.384C88.0809 49.384 88.7849 49.3413 89.5529 49.256C90.3209 49.1707 91.0036 49.0853 91.6009 49V41.832C91.2169 41.8747 90.8116 41.9173 90.3849 41.96C90.0009 42.0027 89.6596 42.024 89.3609 42.024C87.9956 42.024 86.8649 41.8107 85.9689 41.384C85.1156 40.9573 84.4756 40.3387 84.0489 39.528C83.6649 38.7173 83.4729 37.736 83.4729 36.584V21.672H91.4729V14.184H83.4729V6.248H75.0889V8.936C75.0889 10.6427 74.6196 11.944 73.6809 12.84C72.7422 13.736 71.4196 14.184 69.7129 14.184H69.0729H62.1554V6.248H53.7714V8.936C53.7714 10.6427 53.3021 11.944 52.3634 12.84C51.4247 13.736 50.1021 14.184 48.3954 14.184H47.7554V21.672H53.7714V37.032C53.7714 40.9573 54.8381 44.008 56.9714 46.184ZM103.454 47.4C106.27 48.9787 109.385 49.768 112.798 49.768C116.169 49.768 119.241 48.9787 122.014 47.4C124.787 45.8213 127.006 43.6667 128.67 40.936C130.334 38.2053 131.166 35.0907 131.166 31.592C131.166 28.0507 130.334 24.936 128.67 22.248C127.049 19.5173 124.851 17.3627 122.078 15.784C119.305 14.2053 116.211 13.416 112.798 13.416C109.342 13.416 106.227 14.2053 103.454 15.784C100.681 17.3627 98.4619 19.5173 96.7979 22.248C95.1766 24.9787 94.3659 28.0933 94.3659 31.592C94.3659 35.0907 95.1766 38.2053 96.7979 40.936C98.4619 43.6667 100.681 45.8213 103.454 47.4ZM117.726 40.744C116.318 41.64 114.675 42.088 112.798 42.088C110.878 42.088 109.193 41.64 107.742 40.744C106.291 39.848 105.139 38.6107 104.286 37.032C103.475 35.4107 103.07 33.5973 103.07 31.592C103.07 29.544 103.475 27.752 104.286 26.216C105.139 24.6373 106.291 23.4 107.742 22.504C109.193 21.5653 110.878 21.096 112.798 21.096C114.675 21.096 116.318 21.5653 117.726 22.504C119.177 23.4 120.307 24.6373 121.118 26.216C121.971 27.752 122.398 29.544 122.398 31.592C122.398 33.5973 121.971 35.4107 121.118 37.032C120.307 38.6107 119.177 39.848 117.726 40.744ZM147.636 48.296C149.769 49.2773 152.095 49.768 154.612 49.768C157.983 49.768 160.991 48.9787 163.636 47.4C166.281 45.7787 168.372 43.5813 169.908 40.808C171.444 38.0347 172.212 34.9627 172.212 31.592C172.212 28.1787 171.423 25.1067 169.844 22.376C168.308 19.6453 166.217 17.4693 163.572 15.848C160.927 14.2267 157.961 13.416 154.676 13.416C151.988 13.416 149.62 13.9493 147.572 15.016C146.18 15.7118 144.986 16.6047 143.988 17.6946V0.552002H135.604V49H143.476V45.0655C144.596 46.4093 145.982 47.4861 147.636 48.296ZM158.772 40.744C157.279 41.64 155.572 42.088 153.652 42.088C151.817 42.088 150.153 41.64 148.66 40.744C147.209 39.848 146.057 38.6107 145.204 37.032C144.393 35.4533 143.988 33.64 143.988 31.592C143.988 29.5867 144.393 27.7947 145.204 26.216C146.057 24.5947 147.209 23.336 148.66 22.44C150.153 21.544 151.817 21.096 153.652 21.096C155.572 21.096 157.279 21.5653 158.772 22.504C160.265 23.4 161.417 24.6373 162.228 26.216C163.081 27.752 163.508 29.544 163.508 31.592C163.508 33.64 163.081 35.4533 162.228 37.032C161.417 38.6107 160.265 39.848 158.772 40.744ZM192.312 1.32V49H198.584V30.76H209.106L219.384 49H226.68L215.608 29.672C218.509 28.648 220.813 26.9627 222.52 24.616C224.227 22.2693 225.08 19.4107 225.08 16.04C225.08 13.0533 224.397 10.4507 223.032 8.232C221.709 6.01334 219.853 4.30667 217.464 3.112C215.075 1.91733 212.301 1.32 209.144 1.32H192.312ZM209.336 25H198.584V7.08H209.336C211.213 7.08 212.856 7.44267 214.264 8.168C215.672 8.89333 216.76 9.93867 217.528 11.304C218.339 12.6267 218.744 14.2053 218.744 16.04C218.744 17.832 218.339 19.4107 217.528 20.776C216.76 22.1413 215.672 23.1867 214.264 23.912C212.856 24.6373 211.213 25 209.336 25ZM236.226 47.4C238.829 48.9787 241.794 49.768 245.122 49.768C247.512 49.768 249.666 49.384 251.586 48.616C253.549 47.848 255.234 46.824 256.642 45.544C258.093 44.2213 259.16 42.7707 259.842 41.192L254.85 38.632C253.869 40.296 252.589 41.6613 251.01 42.728C249.432 43.7947 247.49 44.328 245.186 44.328C243.096 44.328 241.154 43.816 239.362 42.792C237.613 41.7253 236.248 40.2533 235.266 38.376C234.557 36.9252 234.165 35.3039 234.089 33.512H260.482C260.568 33 260.632 32.4667 260.674 31.912C260.76 31.3147 260.802 30.7813 260.802 30.312C260.802 28.1787 260.418 26.1307 259.65 24.168C258.925 22.1627 257.858 20.392 256.45 18.856C255.085 17.2773 253.4 16.04 251.394 15.144C249.432 14.2053 247.17 13.736 244.61 13.736C241.453 13.736 238.594 14.5253 236.034 16.104C233.517 17.64 231.512 19.752 230.018 22.44C228.568 25.128 227.842 28.2 227.842 31.656C227.842 35.0693 228.589 38.1627 230.082 40.936C231.576 43.6667 233.624 45.8213 236.226 47.4ZM234.213 28.392C234.384 27.1536 234.714 26.023 235.202 25C236.141 23.08 237.442 21.608 239.106 20.584C240.77 19.56 242.605 19.048 244.61 19.048C246.616 19.048 248.408 19.56 249.986 20.584C251.565 21.608 252.76 22.9947 253.57 24.744C254.089 25.8638 254.364 27.0798 254.393 28.392H234.213ZM266.643 0.552002V49H272.595V0.552002H266.643ZM279.91 14.504V49H285.862V14.504H279.91ZM279.91 1.32V9H285.862V1.32H279.91ZM302.842 61.928C304.933 62.696 307.194 63.08 309.626 63.08C312.826 63.08 315.663 62.3973 318.138 61.032C320.655 59.7093 322.618 57.8747 324.026 55.528C325.434 53.1813 326.138 50.5147 326.138 47.528V14.504H320.314V19.2977C319.121 17.7701 317.649 16.5349 315.898 15.592C313.722 14.3547 311.29 13.736 308.602 13.736C305.359 13.736 302.458 14.504 299.898 16.04C297.381 17.5333 295.397 19.5813 293.946 22.184C292.495 24.7867 291.77 27.7093 291.77 30.952C291.77 34.152 292.495 37.0747 293.946 39.72C295.397 42.3227 297.402 44.392 299.962 45.928C302.522 47.4213 305.423 48.168 308.666 48.168C311.354 48.168 313.807 47.5493 316.026 46.312C317.675 45.4098 319.04 44.2126 320.122 42.7206V47.528C320.122 49.6187 319.653 51.3893 318.714 52.84C317.775 54.3333 316.495 55.4427 314.874 56.168C313.295 56.936 311.525 57.32 309.562 57.32C307.002 57.32 304.869 56.744 303.162 55.592C301.498 54.4827 300.367 53.1173 299.77 51.496L294.202 54.056C294.97 55.848 296.079 57.4053 297.53 58.728C299.023 60.0933 300.794 61.16 302.842 61.928ZM314.682 40.872C313.061 41.896 311.226 42.408 309.178 42.408C307.045 42.408 305.125 41.896 303.418 40.872C301.754 39.848 300.431 38.4827 299.45 36.776C298.511 35.0267 298.042 33.0853 298.042 30.952C298.042 28.8187 298.511 26.8987 299.45 25.192C300.431 23.4427 301.775 22.056 303.482 21.032C305.189 20.008 307.087 19.496 309.178 19.496C311.226 19.496 313.061 20.008 314.682 21.032C316.346 22.056 317.669 23.4427 318.65 25.192C319.631 26.9413 320.122 28.8613 320.122 30.952C320.122 33.0853 319.631 35.0267 318.65 36.776C317.669 38.4827 316.346 39.848 314.682 40.872ZM333.445 0.552002V49H339.397V28.584C339.397 26.7067 339.76 25.1067 340.485 23.784C341.211 22.4187 342.213 21.3733 343.493 20.648C344.773 19.88 346.203 19.496 347.781 19.496C349.403 19.496 350.832 19.88 352.069 20.648C353.307 21.3733 354.267 22.3973 354.949 23.72C355.675 25.0427 356.037 26.664 356.037 28.584V49H362.053V26.664C362.053 24.1893 361.477 21.9707 360.325 20.008C359.216 18.0453 357.68 16.5093 355.717 15.4C353.797 14.2907 351.6 13.736 349.125 13.736C346.565 13.736 344.325 14.3547 342.405 15.592C341.187 16.3673 340.184 17.3492 339.397 18.5377V0.552002H333.445ZM374.858 46.504C376.693 48.424 379.296 49.384 382.666 49.384C383.136 49.384 383.712 49.3413 384.394 49.256C385.077 49.2133 385.696 49.128 386.25 49V43.752C385.866 43.7947 385.44 43.8373 384.97 43.88C384.544 43.9227 384.181 43.944 383.882 43.944C382.474 43.944 381.344 43.7093 380.49 43.24C379.637 42.728 379.018 42.0453 378.634 41.192C378.293 40.3387 378.122 39.336 378.122 38.184V20.2H385.866V14.504H378.122V6.568H372.17V9.384C372.17 10.92 371.722 12.1573 370.826 13.096C369.93 14.0347 368.714 14.504 367.178 14.504H365.898V20.2H372.17V38.376C372.17 41.8747 373.066 44.584 374.858 46.504Z" fill="#F3C846"/>
</svg>
