<svg width="32" height="32" viewBox="0 0 32 32" fill="none" xmlns="http://www.w3.org/2000/svg">
<path fill-rule="evenodd" clip-rule="evenodd" d="M8.00025 2H12.0002L8.83765 11.4878C8.33756 12.9881 6.93358 14 5.35216 14C2.15538 14 0.483702 10.1999 2.64385 7.84335L8.00025 2ZM24.0002 2H20.0002L23.1629 11.4878C23.6629 12.9881 25.0669 14 26.6483 14C29.8451 14 31.5168 10.1999 29.3567 7.84335L24.0002 2ZM18.0002 2H14.0002L12.2129 9.14929C11.5969 11.6132 13.4605 14 16.0002 14C18.54 14 20.4036 11.6132 19.7876 9.14929L18.0002 2ZM4.00025 28V15.8453C4.42714 15.9461 4.87883 16 5.35216 16C7.66393 16 9.73019 14.5998 10.5994 12.4851C11.506 14.5239 13.544 16 16.0002 16C18.4565 16 20.4945 14.5239 21.4011 12.4851C22.2703 14.5998 24.3366 16 26.6483 16C27.1217 16 27.5734 15.9461 28.0002 15.8453V28C28.0002 29.1046 27.1048 30 26.0002 30H6.00025C4.89568 30 4.00025 29.1046 4.00025 28ZM8.00025 26V18H24.0002V26H8.00025Z" fill="#111111"/>
</svg>
