<svg width="16" height="16" viewBox="0 0 16 16" fill="none" xmlns="http://www.w3.org/2000/svg">
<g id="Iconset-Hybrid/Icon793">
<path id="Secondary" fill-rule="evenodd" clip-rule="evenodd" d="M4 8.99997C4.04244 8.99997 4.08468 9.00085 4.1267 9.0026C4.48895 10.4061 5.59389 11.511 6.99737 11.8733C6.99912 11.9153 7 11.9575 7 12C7 13.6568 5.65685 15 4 15C2.34315 15 1 13.6568 1 12C1 10.3431 2.34315 8.99997 4 8.99997ZM8 4.99997C8.04244 4.99997 8.08468 5.00085 8.1267 5.0026C8.48895 6.40608 9.59389 7.51102 10.9974 7.87327C10.9991 7.91529 11 7.95752 11 7.99997C11 9.65682 9.65685 11 8 11C6.34315 11 5 9.65682 5 7.99997C5 6.34311 6.34315 4.99997 8 4.99997Z" fill="#EEEEEE" fill-opacity="0.6" style="fill:#EEEEEE;fill:color(display-p3 0.9333 0.9333 0.9333);fill-opacity:0.6;"/>
<path id="Primary" d="M12 0.999969C13.6569 0.999969 15 2.34311 15 3.99997C15 5.65682 13.6569 6.99997 12 6.99997C10.3431 6.99997 9 5.65682 9 3.99997C9 2.34312 10.3431 0.999969 12 0.999969Z" fill="#EEEEEE" style="fill:#EEEEEE;fill:color(display-p3 0.9333 0.9333 0.9333);fill-opacity:1;"/>
<path id="Overlay" fill-rule="evenodd" clip-rule="evenodd" d="M2.70718 1C2.26173 1 2.03865 1.53857 2.35363 1.85355L3.39652 2.89645L1.14652 5.14645L0.792969 5.5L1.50008 6.20711L1.85363 5.85355L4.10363 3.60355L5.14652 4.64645C5.46151 4.96143 6.00008 4.73835 6.00008 4.29289V1H2.70718Z" fill="#EEEEEE" style="fill:#EEEEEE;fill:color(display-p3 0.9333 0.9333 0.9333);fill-opacity:1;"/>
</g>
</svg>
