<svg width="16" height="16" viewBox="0 0 16 16" fill="none" xmlns="http://www.w3.org/2000/svg">
<g id="Iconset-Hybrid/Icon793">
<path id="Primary" fill-rule="evenodd" clip-rule="evenodd" d="M4.86209 13.8196L7.21376 14.9275C7.94275 15.271 8.80887 15.12 9.37869 14.5502C10.0509 13.878 10.1265 12.8138 9.55614 12.0533L9.31854 11.7365C8.8087 11.0567 8.87876 10.1049 9.48264 9.50711C10.0706 8.92506 10.9921 8.85051 11.666 9.33048L12.0442 9.59984C12.8145 10.1485 13.8684 10.0605 14.5371 9.39182C15.1147 8.81415 15.2678 7.93611 14.9196 7.19707L13.8195 4.86213C12.7088 2.50451 10.3369 1 7.73072 1C4.01345 1 1 4.01346 1 7.73073C1 10.3369 2.5045 12.7088 4.86209 13.8196ZM8 4C8 4.55228 7.55228 5 7 5C6.44772 5 6 4.55228 6 4C6 3.44772 6.44772 3 7 3C7.55228 3 8 3.44772 8 4ZM4 7C4.55228 7 5 6.55228 5 6C5 5.44772 4.55228 5 4 5C3.44772 5 3 5.44772 3 6C3 6.55228 3.44772 7 4 7ZM12 5C12 5.55228 11.5523 6 11 6C10.4477 6 10 5.55228 10 5C10 4.44772 10.4477 4 11 4C11.5523 4 12 4.44772 12 5ZM4 11C4.55228 11 5 10.5523 5 10C5 9.44771 4.55228 9 4 9C3.44772 9 3 9.44771 3 10C3 10.5523 3.44772 11 4 11Z" fill="#EEEEEE" style="fill:#EEEEEE;fill:color(display-p3 0.9333 0.9333 0.9333);fill-opacity:1;"/>
</g>
</svg>
