<svg width="16" height="16" viewBox="0 0 16 16" fill="none" xmlns="http://www.w3.org/2000/svg">
<g clip-path="url(#clip0_423_12060)">
<path fill-rule="evenodd" clip-rule="evenodd" d="M0.214752 9.42245C0.0740632 9.91852 0 10.4379 0 10.9682V12.6309C0 14.6551 2.16661 15.9413 3.94361 14.972L13.0469 10.0065C13.0829 9.98689 13.1186 9.96689 13.1541 9.94653C13.0008 9.5236 12.7539 9.13925 12.4312 8.82348C12.4236 8.82768 12.416 8.83186 12.4084 8.83601L3.30514 13.8015C2.41664 14.2861 1.33333 13.643 1.33333 12.6309V10.9682C1.33333 10.8262 1.34028 10.6852 1.35393 10.5457C0.929492 10.2138 0.547959 9.83631 0.214752 9.42245ZM3.56887 7.1765C3.2461 6.86074 2.99918 6.47639 2.84594 6.05346C2.88141 6.03311 2.91716 6.01311 2.95317 5.99346L12.0564 1.02807C13.8334 0.0587932 16 1.34496 16 3.36912V5.03181C16 5.56205 15.9259 6.08145 15.7853 6.57751C15.4521 6.16364 15.0705 5.78619 14.6461 5.45428C14.6597 5.31474 14.6667 5.17379 14.6667 5.03181V3.36912C14.6667 2.35704 13.5834 1.71396 12.6949 2.19859L3.59164 7.16399C3.58404 7.16814 3.57645 7.17231 3.56887 7.1765Z" fill="#EEEEEE"/>
<path fill-rule="evenodd" clip-rule="evenodd" d="M9.39216 5.51872L12.4084 7.16392C13.8005 7.92326 14.6667 9.38237 14.6667 10.9681V12.6309C14.6667 13.643 13.5834 14.286 12.6949 13.8014L10.7845 12.7594L9.39223 13.5188L12.0564 14.9719C13.8334 15.9412 16 14.655 16 12.6309V10.9681C16 8.89445 14.8673 6.98638 13.0468 5.99339L10.7844 4.75933L9.39216 5.51872ZM6.60772 2.48115L3.9436 1.02799C2.16661 0.0587208 0 1.34489 0 3.36905V5.0318C0 7.10548 1.13269 9.01355 2.95317 10.0065L5.21557 11.2406L6.60779 10.4812L3.59164 8.83601C2.19951 8.07667 1.33333 6.61756 1.33333 5.0318V3.36905C1.33333 2.35697 2.41664 1.71389 3.30514 2.19852L5.21549 3.24053L6.60772 2.48115Z" fill="#EEEEEE"/>
</g>
<defs>
<clipPath id="clip0_423_12060">
<rect width="16" height="16" fill="white"/>
</clipPath>
</defs>
</svg>
