<svg width="16" height="16" viewBox="0 0 16 16" fill="none" xmlns="http://www.w3.org/2000/svg">
<path fill-rule="evenodd" clip-rule="evenodd" d="M6.58579 1.41421L6 2L9.11111 4.88889L7 7L13 6.94445V1L11 3L9.41421 1.41421C8.63316 0.633165 7.36684 0.633165 6.58579 1.41421ZM10.9999 13L8.99994 11L10.9999 9L11.5857 9.58579C12.3668 10.3668 12.3668 11.6332 11.5857 12.4142L10.9999 13ZM4.99994 3L6.99994 5L4.99994 7L4.41415 6.41421C3.63311 5.63316 3.63311 4.36684 4.41416 3.58579L4.99994 3ZM10 14L9.41421 14.5858C9.31658 14.6834 9.21137 14.7688 9.10047 14.8421C8.32416 15.3546 7.2692 15.2692 6.58579 14.5858L5 13L3 15V9.05555L4.96262 9.03738L5 9L5.0367 9.0367L9 9L7 11L10 14Z" fill="#EEEEEE"/>
</svg>
