<svg width="16" height="16" viewBox="0 0 16 16" fill="none" xmlns="http://www.w3.org/2000/svg">
<g id="Iconset-Hybrid/Icon793">
<path id="Secondary" fill-rule="evenodd" clip-rule="evenodd" d="M2.08535 9H1V11.1716C1 11.702 1.21071 12.2107 1.58579 12.5858L4 15H12L14.4142 12.5858C14.7893 12.2107 15 11.702 15 11.1716V9H13V10.5C13 11.3284 12.3284 12 11.5 12C10.8083 12 10.2259 11.5318 10.0525 10.895C9.88155 10.9627 9.69512 11 9.5 11C8.67157 11 8 10.3284 8 9.5V9H4.91465C4.70873 9.5826 4.15311 10 3.5 10C2.84689 10 2.29127 9.5826 2.08535 9Z" fill="#EEEEEE" fill-opacity="0.6" style="fill:#EEEEEE;fill:color(display-p3 0.9333 0.9333 0.9333);fill-opacity:0.6;"/>
<path id="Primary" fill-rule="evenodd" clip-rule="evenodd" d="M14 5C14 6.19469 13.4762 7.26706 12.6458 8H12V10.5C12 10.7761 11.7761 11 11.5 11C11.2239 11 11 10.7761 11 10.5V8H10V9.5C10 9.77614 9.77614 10 9.5 10C9.22386 10 9 9.77614 9 9.5V8H8.46483C8.80517 7.41165 8.99996 6.72857 8.99996 6C8.99996 4.47688 8.14865 3.15259 6.8959 2.47699C7.62934 1.57573 8.74743 1 10 1C12.2091 1 14 2.79086 14 5ZM2 6C2 6.76835 2.28885 7.46924 2.76389 8H3V8.5C3 8.77614 3.22386 9 3.5 9C3.77614 9 4 8.77614 4 8.5V8H7.23611C7.71115 7.46924 8 6.76835 8 6C8 4.34315 6.65685 3 5 3C3.34315 3 2 4.34315 2 6Z" fill="#EEEEEE" style="fill:#EEEEEE;fill:color(display-p3 0.9333 0.9333 0.9333);fill-opacity:1;"/>
</g>
</svg>
